<?xml version="1.0" encoding="UTF-8"?>
<svg id="Layer_2" data-name="Layer 2" xmlns="http://www.w3.org/2000/svg" viewBox="0 0 753.82 636.93">
  <defs>
    <style>
      .cls-1 {
        fill: #9b470d;
      }

      .cls-2 {
        fill: #d15642;
      }

      .cls-3 {
        fill: #ffb888;
      }

      .cls-4 {
        fill: #b50d0d;
      }

      .cls-5 {
        fill: #d0988c;
      }

      .cls-6 {
        fill: #e0874b;
      }

      .cls-7 {
        fill: #6a5c55;
      }

      .cls-8 {
        fill: #efefef;
      }

      .cls-9 {
        fill: #050404;
      }

      .cls-10 {
        fill: #fafaf9;
      }

      .cls-11 {
        fill: #b6560c;
      }

      .cls-12 {
        fill: #e5640c;
      }

      .cls-13 {
        fill: #d15602;
      }
    </style>
  </defs>
  <g id="Layer_2-2" data-name="Layer 2">
    <g>
      <path class="cls-8" d="M264.36,502.67c-13.91,5.45-22.29,27.45-16.34,35.4,3.95,5.28,15.19,5.71,22.81,3.74,8.43-2.18,12.27-7.28,15.66-5.45,3.11,1.68,1.89,7.05,2.72,14.3,1.91,16.65,12.89,28.04,17.36,32.68,6.64,6.88,18.79,16.2,23.83,12.94,4.32-2.8,1.1-13.36,3.4-13.96,2.29-.6,5.44,9.82,14.3,21.79,5.84,7.89,9.86,13.32,17.02,15.66,7.66,2.51,16.62.72,23.15-3.4,13.31-8.42,12.9-24.3,22.13-25.19,3.98-.38,4.48,2.52,11.23,3.06.51.04,8.91.61,16.34-4.09,5.63-3.56,7.05-7.82,13.28-20.77,10.81-22.45,12.25-21.44,13.62-28.6,1.57-8.25,2.54-24.73-4.43-28.26-7.42-3.76-16.59,10.87-33.7,20.43-38.88,21.72-91.06,1.84-102.13-2.72-33.82-13.95-44.51-33.75-60.26-27.57Z"/>
      <path class="cls-8" d="M375.45,35.26c-39.59,1.57-58.45,7.12-61,7.41-11.81,1.35-67.37,16.12-105.58,72.93-3.07,4.56-27.23,45.29-23.15,84.43.66,6.34,3.4,17.18,1.9,31.77-1.46,14.27-4.2,20.9-7.89,40.67-3.69,19.75-3.54,15.94-6.26,26.22-7.6,28.71-19.51,34.77-18.38,54.53.12,2.11.88,15.48,10.21,22.81,11.78,9.26,29.04,2.45,34.38,11.91,1.56,2.76.93,4.84,1.02,8.85.31,13.66,8.41,24.01,16,33.7,16.48,21.06,55.69,40.7,97.7,51.74,16.92,4.45,36.85,9.54,64,9.19,28.57-.36,49.58-6.54,64-10.89,28.39-8.57,70.98-21.44,90.89-50.04,8.09-11.62,12.77-17.39,22.13-28.94,8.07-9.96,11.76-13.87,17.02-17.7,12.91-9.39,18.87-6.27,24.17-11.91,8.76-9.33.57-26.45-12.26-70.81-8.43-29.17-12.68-44.11-14.3-61.96-1.87-20.62.84-24.38-.68-45.62-.39-5.45-2.51-34.93-12.26-59.91-14.38-36.84-54.17-66.2-95.32-88.85-2.99-1.65-6.51-12.69-86.36-9.53Z"/>
      <path class="cls-8" d="M723.77,210.46c-14.7,2.51-19.62-27.18-55.72-48-24.23-13.98-63.81,98.76-88.71,81.94-18.23-12.32-1.47-104.16-21.39-119.51-26.19-20.18-21.11-35.25-45.46-55.37-11.72-9.69-36.81-14.66-32.6-26.84,4.27-12.36,37-27.49,55.82-27.28,37.46.41,46.43,22.27,117.25,63.32,39.35,22.81,59.54,23.26,75.99,45.24,5.76,7.7,16.91,32.4,12.24,57.91-.63,3.42-4.85,26.45-17.41,28.6Z"/>
      <path class="cls-8" d="M27.51,210.46c14.7,2.51,19.62-27.18,55.72-48,24.23-13.98,63.81,98.76,88.71,81.94,18.23-12.32,1.47-104.16,21.39-119.51,26.19-20.18,21.11-35.25,45.46-55.37,11.72-9.69,36.81-14.66,32.6-26.84-4.27-12.36-37-27.49-55.82-27.28-37.46.41-46.43,22.27-117.25,63.32-39.35,22.81-59.54,23.26-75.99,45.24-5.76,7.7-16.91,32.4-12.24,57.91.63,3.42,4.85,26.45,17.41,28.6Z"/>
      <path class="cls-5" d="M267.38,509c2.58-8.3,3.98-17.37,5.01-26,16.5,7.3,33.38,14.2,50.98,18.51,34.31,8.38,62.6,9.49,97.22,2.2,21.37-4.5,41.28-13.19,60.79-22.7,1.83,18.31,6.21,36.32,14,52.99-8.1-1.41-17.03-1.61-24.7-4.79-4.97-2.06-7.16-5.24-13.29-6.21-.13-.02-.49-1.01-1.31-.84-.68.14-9.39,5.86-12.02,7.01-17.15,7.55-51.86,18.62-70.17,17.81-24.52-1.08-52.88-13.77-74.89-24.11-10.08-4.73-20.16-12.31-31.62-13.88Z"/>
      <path class="cls-5" d="M332.38,556c6.76,6.06,15.23,23.67,22.49,32.01,6.04,6.95,14.05,11.97,19.97,19.06,1.95,1.79,4.28.49,6.05-1.06,10.44-9.13,21.55-25.38,30.53-36.47,1.25-1.55,2.82-4.69,4.96-4.54-4.75,12.36-10.14,23.28-19.03,33.47-3.27,3.75-17.06,16.97-21.42,16.53-1.93-.19-11.17-7.22-13.08-8.98-4.99-4.61-11.92-13.46-15.87-19.13-6.3-9.05-11.97-20.27-14.61-30.89Z"/>
      <path class="cls-5" d="M456.95,525c5.23,17.06-9,43.38-20.95,55.55-.94.95-8.04,7.23-8.56,7.44-2.04.85-1.41-1.39-1.49-2.48-.33-4.57.39-9.45-.02-14-.53-5.88-3.42-11.47-2.98-17.52,4.93.68,6.78,16.01,11.48,16.06,3.78.04,9.43-13.43,11.37-16.7l11.14-28.36Z"/>
      <path class="cls-5" d="M310.95,565c1.33,1.41,6.46,8.11,7.99,7,1.81-4.74,3.81-11.91,9.01-14-1.71,9.3-3.82,18.42-3.01,28-1.36,1.38-9.57-6.26-11-7.78-11.48-12.27-18.16-27.53-19-44.22,4.42,7.95,8.37,24.82,14.6,31.07,1,1,1.36-.12,1.4-.07Z"/>
      <path class="cls-5" d="M290.95,524c-.18,2.4-3.85,4.77-5.67,5.82-8.24,4.76-16.21,6.08-25.33,4.18,9.79-3.8,20.78-8.11,31-10Z"/>
      <path class="cls-5" d="M29.33,187.78c.04,8.86,1.04,17.55,1,26.49,0,1.64-1.15,3.39-.99,4.98.17,1.7,2.31,2.92,2.04,5-.07.52-2.02.47-2.11,1.15-.25,1.91,3.27,17.09,4.06,20.39-3.25-4.84-4.4-12.04-5.69-17.81-2.44-10.9-4.39-22.06-5.31-33.19,5.78-.15,3.53-7.42,7-7Z"/>
      <path class="cls-11" d="M257.33,54.78c-3,1.88-11.35,9.07-15.35,12.15-5.31,4.08-7.02,8.5-15.2,9.8-11.61,1.84-12.39-2.11-21.47,8.53-10.19,11.94-12.8,37.41-18.98,43.52-.14.13-1.43-.36-1.82.14-.15.2-.83,3.68-1.18,4.86-.09.32.11.72,0,1-.43.19-.86.55-1,1-.09.29.08.68,0,1-4.75.05-4.38,3.54-6.42,6.1-.87,1.09-2.8,1.43-3.29,2.19-3.74,5.7-5.26,38.33-4.22,46.16,2.09,15.78,1.4,28.19,1.93,44.1.06,1.93-1.02,4.01,2,3.45-1.65,30.94-11.13,57.58-39.7,72.8-50.83,27.08-88.62-20.75-99.3-65.8-.78-3.3-4.31-18.48-4.06-20.39.09-.68,2.04-.63,2.11-1.15.27-2.09-1.87-3.3-2.04-5-.16-1.58.98-3.34.99-4.98.04-8.94-.95-17.62-1-26.49,0-.99-.07-2.02,0-3l.98-.5-.98-.5c.86-8.23,4.53-30.97,7.82-37.68,8.3-16.95,46.28-28.03,63.07-35.93,22.5-10.59,44.7-25.34,63.62-41.37-6.67,15.11-12.28,30.71-18.51,45.98l-1,1c-.12.28.12.72,0,1-.99,2.32-3.2,5.32-4,7.99,1.01,1.06,5.29-4.14,6-4.99s.75-1.66,1-2l1-1c.57-.8.74-1.63,1-2l1-1c.16-.23-.15-.77,0-1l2-2c.15-.23-.15-.77,0-1l1-1c12.42-19.04,36.15-64,60.51-65.99,12.48-1.02,33.37,4.69,43.49,11.99Z"/>
      <path class="cls-2" d="M409.23,416.81c-1.1,1.21-1.55,3.35-3.46,5.04-18.14,16.08-50.73,12.68-66.54-5.04,1.22-4.24,7.46-8.38,11.31-10.19,13.97-6.55,41.61-6.54,54.19,3.2,2.05,1.59,4.86,4.09,4.5,7Z"/>
      <path class="cls-4" d="M409.23,416.81c.36-2.9-2.45-5.41-4.5-7-12.57-9.73-40.21-9.75-54.19-3.2-3.85,1.81-10.09,5.95-11.31,10.19-2.49-2.79-11.41-14.36-8.88-17.88.39-.54,10.69-4.53,12.37-5.13,25.26-9.13,53.17-5.44,78.1,2.97,1.49,1.88-6.74,16.33-8.58,18.6-1.02,1.26-2.84,1.26-3.01,1.45Z"/>
      <path class="cls-7" d="M352.96,279.81c-6.77,6.54-.62,15.76,7.59,16.91,14.16,1.99,37.92-2.38,24.41-20.91,8.45,1.2,20.89,5.25,25.41,13.08,3.65,6.32-.11,8.86-5.43,11.4-18.55,8.86-39.09,9.66-58.26,2.29-8.21-3.16-15.52-6.82-7.27-15.82,3.91-4.26,8.83-5.05,13.55-6.95Z"/>
      <path class="cls-10" d="M384.96,275.81c13.5,18.53-10.25,22.91-24.41,20.91-8.21-1.15-14.36-10.37-7.59-16.91,12.38-4.99,18.25-5.95,32-4Z"/>
      <circle class="cls-1" cx="331.05" cy="270.22" r="8.18"/>
      <g>
        <path class="cls-9" d="M233.58,274.26c-4.74-1.95-6.37-1.33-11.48-5.02-20.03-14.5-19.37-43.32-10.38-64.33,27.45-64.14,112.85-42.72,105.85,29.85-2.31,23.92-24.69,43.9-48.99,41.51-35.35-3.48-49.71-48.29-29.83-75.33,1.18-1.61,11.02-10.58,9.82-11.67-3.5-.18-6.86,2.87-9.47,5.02-21.83,18-27.48,59.9-5.53,79.97ZM266.32,187.5c-7.56,1.3-14.61,8.76-15.65,16.34-3.62,26.57,29.97,31.81,39.46,11.46,7.95-17.06-6.53-30.78-23.81-27.81ZM246.32,229.43c-10.69,2.19-4.71,19,7.01,14.06,7.72-3.25,1.54-15.81-7.01-14.06ZM290.28,233.47c-7.47,2.24-7.73,14.85.24,17.34,16.76,5.22,16.99-22.51-.24-17.34Z"/>
        <path class="cls-10" d="M233.58,274.26c-21.95-20.07-16.3-61.97,5.53-79.97,2.61-2.15,5.97-5.2,9.47-5.02,1.2,1.09-8.64,10.06-9.82,11.67-19.88,27.04-5.53,71.85,29.83,75.33.63,2.59-2.12,2.38-3.77,2.7-15.89,3.05-17.67.88-31.23-4.7Z"/>
      </g>
      <g>
        <path class="cls-9" d="M509.69,192.36c-2.61-2.15-5.97-5.2-9.47-5.02-1.2,1.09,8.64,10.06,9.82,11.67,19.88,27.04,5.53,71.85-29.83,75.33-24.3,2.39-46.68-17.58-48.99-41.51-7-72.57,78.4-93.99,105.85-29.85,8.99,21.02,9.65,49.83-10.38,64.33-5.1,3.7-6.74,3.08-11.48,5.02,21.95-20.07,16.3-61.97-5.53-79.97ZM458.67,213.38c9.48,20.35,43.08,15.1,39.46-11.46-1.03-7.58-8.09-15.04-15.65-16.34-17.28-2.97-31.76,10.74-23.81,27.81ZM495.48,241.57c11.72,4.94,17.7-11.87,7.01-14.06-8.55-1.75-14.72,10.81-7.01,14.06ZM458.27,248.88c7.98-2.49,7.71-15.1.24-17.34-17.23-5.17-17.01,22.56-.24,17.34Z"/>
        <path class="cls-10" d="M515.22,272.34c21.95-20.07,16.3-61.97-5.53-79.97-2.61-2.15-5.97-5.2-9.47-5.02-1.2,1.09,8.64,10.06,9.82,11.67,19.88,27.04,5.53,71.85-29.83,75.33-.63,2.59,2.12,2.38,3.77,2.7,15.89,3.05,17.67.88,31.23-4.7Z"/>
      </g>
      <path class="cls-9" d="M270.13,101.52c10.83-1.86,25.46.63,31.97,11.23,2.81,4.58,3.16,6.54,1.57,11.86-3.64,12.15-14.42,6.02-23.42,6.31-10.37.33-20.48,3.5-29.66,8.59-5.03,2.79-22.22,18.43-20.4,1.72,1.87-17.12,25.12-37.17,39.94-39.72Z"/>
      <path class="cls-9" d="M509.63,115.66c3.66,4.12,11.21,15.41,12.29,20.75,5.26,25.83-19.07,4.05-28.39-.16-6.1-2.76-14.8-5.75-21.34-6.39-8.71-.86-29.74,3.33-34.38-4.38-5.03-8.36-1.84-17.53,4.65-23.56,18.82-17.47,52.12-3.2,67.17,13.74Z"/>
      <path class="cls-12" d="M436.86,308.54c-.61,7.42.87,11.68-5.32,14.57-8.78,4.11-9.36-3.21-10.48-7.97-1.61-6.8,3.38-12.87,9.85-13.1,3.58-.13,6.24,2.93,5.95,6.5Z"/>
      <path class="cls-9" d="M366.96,350.81c.24-1.64,1.22-3.24,1-5-31.77-2.91-64.29-41.9-39.51-71.01,19.26-22.64,77.78-21.3,94.35,4.67,19,29.79-12.12,62.73-41.84,65.34-.15,2.72.54,5.36,1.01,8,1.45,8.31,3.51,10.09,10.69,14.81,21.28,13.98,51.68,13.19,71.32-3.3,6.02-5.05,5.76-6.71,8.99-12.51,2.08-3.73,6.39-6.91,5.05-12.33-.24-.98-13.51-6.02-10.59-10.68,3.71-5.91,17.52-4.42,22.87-.83,7.93,5.31,5.3,14.83,2.7,22.38-7.46,21.71-28.74,37.6-50.91,41.59-16.61,76.9-118.52,76.44-135.63-.13-19.91-4.21-44.98-21.41-50.04-41.97-3.52-14.3.93-26.67,17.8-23.79,2.75.47,10.19,2.82,7.77,6.29-2.14,3.07-10.28,7.76-10.9,10.18-.67,2.64,4.28,8.79,5.86,11.29,7.54,11.87,15.13,17.8,29.22,21.28,19.48,4.82,57.28-.26,60.78-24.28ZM352.96,279.81c-4.71,1.9-9.64,2.69-13.55,6.95-8.25,9-.94,12.66,7.27,15.82,19.17,7.37,39.71,6.57,58.26-2.29,5.32-2.54,9.08-5.08,5.43-11.4-4.52-7.83-16.96-11.89-25.41-13.08-13.75-1.95-19.62-.99-32,4ZM408.96,416.81c.17-.18,1.98-.19,3.01-1.45,1.84-2.27,10.07-16.71,8.58-18.6-24.93-8.41-52.84-12.1-78.1-2.97-1.67.6-11.98,4.59-12.37,5.13-2.53,3.53,6.39,15.09,8.88,17.88,15.81,17.72,48.4,21.13,66.54,5.04,1.91-1.7,2.36-3.83,3.46-5.04Z"/>
      <path class="cls-11" d="M190.58,167.26c20.83-44.83,51.28-80.54,97.04-101.46,10.09-4.62,20.97-7.78,31.38-11.6,9.13,19.06,20.27,37.42,26.3,57.85,20.7,70.08-.03,150.25-61.4,192.03-22.52,15.33-41.88,22.65-69.8,20.17-10.63-.94-27.3-9.23-33.52-17.98-.59-.83-4.53-8.77-5-10-3.13-8.26,4.47-25.15,6.71-33.79,2.61-10.05,4.77-20.27,5.33-30.67.93-17.14-3.22-51.23,2.96-64.54ZM270.32,103.5c-14.23,2.23-36.55,19.77-38.35,34.75-1.75,14.62,14.76.93,19.59-1.51,8.81-4.45,18.52-7.23,28.47-7.52,8.64-.25,18.99,5.11,22.48-5.52,1.53-4.65,1.19-6.37-1.51-10.38-6.25-9.28-20.3-11.45-30.69-9.83ZM233.58,274.26c13.56,5.57,15.34,7.74,31.23,4.7,1.65-.32,4.4-.1,3.77-2.7,24.3,2.39,46.68-17.58,48.99-41.51,7-72.57-78.4-93.99-105.85-29.85-8.99,21.02-9.65,49.83,10.38,64.33,5.1,3.7,6.74,3.08,11.48,5.02Z"/>
      <path class="cls-11" d="M561.18,229.88c.56,10.4,2.72,20.62,5.33,30.67,2.24,8.64,9.84,25.53,6.71,33.79-.47,1.23-4.41,9.17-5,10-6.22,8.75-22.89,17.04-33.52,17.98-27.92,2.48-47.28-4.84-69.8-20.17-61.37-41.78-82.1-121.95-61.4-192.03,6.03-20.43,17.17-38.79,26.3-57.85,10.41,3.82,21.29,6.98,31.38,11.6,45.75,20.93,76.21,56.63,97.04,101.46,6.18,13.31,2.03,47.4,2.96,64.54ZM447.79,111.4c-2.7,4.01-3.03,5.73-1.51,10.38,3.49,10.63,13.84,5.27,22.48,5.52,9.96.29,19.67,3.07,28.47,7.52,4.83,2.44,21.34,16.13,19.59,1.51-1.8-14.97-24.12-32.52-38.35-34.75-10.39-1.63-24.44.55-30.69,9.83ZM526.7,267.31c20.03-14.5,19.37-43.32,10.38-64.33-27.45-64.14-112.85-42.72-105.85,29.85,2.31,23.92,24.69,43.9,48.99,41.51-.63,2.59,2.12,2.38,3.77,2.7,15.89,3.05,17.67.88,31.23-4.7,4.74-1.95,6.37-1.33,11.48-5.02Z"/>
      <path class="cls-11" d="M717.06,141.17c-4.19-8.42-17.27-15.74-25.57-19.77-28.09-13.62-58.06-22.85-85.28-40.59-4.46-2.91-13.57-11.21-17.47-12.76-1.27-.5-1.86.18-1.48,1.49l21.09,43c.33.29.83.62,1,1.01.12.28-.13.74,0,1.01,1.51,3.25,3.55,6.32,5.02,9.61-2.76,1.98-3.48-2.93-4.01-3.55-.73-.86-1.92-1.74-3.01-3.03-18.61-21.98-35.04-54.87-56.76-72.83-19.18-15.87-41.03-4.74-60.82,4.07,1.56,4,7.44,6.09,10.97,8.68,4.05,2.98,16.57,14.64,19.47,15.87,4.23,1.78,13.34-2.78,18.78,1.26,4.15,3.08,12.46,18.27,13.84,23.49.82,3.11.56,6.99,1.58,10.55,3.2,11.18,10.92,22.86,14.47,34.99,14.84,50.83-8.02,139.89,50.85,166.25,27.88,12.48,61.18,7.03,78.06-19.39,10.33-16.16,18.02-32.27,23.81-50.35.5-1.57.84-3.25,2.32-4.25.14-.59-.14-1.42,0-2.02l1-2.02c.12-.62-.13-1.42,0-2.02.53-2.46.25-5.85,3.01-7.08.03-.67-.05-1.35,0-2.02.67-9.25,1.52-14.13,3.01-23.26.57-3.51.65-5.79,1-9.1-12.29-11.8-7.72-32.8-14.89-47.2Z"/>
      <ellipse class="cls-11" cx="374.4" cy="134.75" rx="1.53" ry="35.23"/>
      <path class="cls-1" d="M347.99,231.51c0,6.03-3.92,10.91-8.77,10.91s-8.77-4.89-8.77-10.91,3.72-15.55,8.77-10.91c3.56,3.28,8.77,4.89,8.77,10.91Z"/>
      <ellipse class="cls-1" cx="369.51" cy="210.61" rx="9.17" ry="8.3"/>
      <path class="cls-13" d="M445.08,290.8c-.43,3.71.62,5.84-3.77,7.29-6.24,2.06-6.65-1.61-7.44-3.99-1.14-3.4,2.4-6.44,7-6.56,2.54-.06,4.43,1.47,4.22,3.25Z"/>
      <path class="cls-6" d="M311.14,325.02c5.29.43,8.33-.61,10.39,3.77,2.93,6.23-2.29,6.64-5.68,7.43-4.85,1.14-9.18-2.4-9.34-6.98-.09-2.53,2.09-4.43,4.63-4.22Z"/>
      <path class="cls-3" d="M301.97,304.88c3.77.43,5.94-.61,7.41,3.77,2.09,6.23-1.63,6.64-4.05,7.43-3.46,1.14-6.54-2.4-6.66-6.98-.07-2.53,1.49-4.43,3.3-4.22Z"/>
      <path class="cls-9" d="M596.96,314.01l15.51,56.96c-2.45,5.33-27.93,19.52-34.23,21.81-2.66.96-7.47.99-8.88,2.12-1.13.91-5.02,20.55-6.91,25.09-7.16,17.19-19.63,24.78-34.57,34.43-9.23,5.97-18.92,11.84-28.99,16.18,2.92,22.18,7.89,44.39,17.22,64.76,3.31,7.24,10.43,11.07-.13,14.16s-26.67,3.94-36.8.77c-3.11-.97-5.02-3.27-8.21-3.28-.82,18.14-11.79,35.57-24.99,47.51-3.75,3.39-17.58,14.41-21.74,15.31-6.88,1.49-8.92-8.58-11.26-6.82-3.98,8.19-12.88,17.48-20,23.51-3.97,3.36-14.15,11.39-19.28,10.32-3.87-.81-17.76-13.21-21.25-16.79-2.64-2.7-12.98-16.76-14.03-17.08-2.92-.89-3.43,3.94-6.71,5.28-7.88,3.22-14.22-2.97-19.75-7.72-14.52-12.49-28.77-30.94-31.07-50.44-7.09,2.7-45.55,2.97-48.75-2.23-1.92-3.11,5.81-15.14,7.32-18.86,7.17-17.68,14.11-37.27,15.36-56.32-12.21-7.88-25.24-14.66-37.37-22.64-6.67-4.39-16.05-9.94-20.99-16.01-8.53-10.47-12.47-24.54-11.59-37.91-9.93-.48-42.61-15.94-46.38-24.11-1.46-3.18.13-7.79.77-11.19,3.05-16.2,10.32-31.54,12.7-47.79l-12.32,8.17C35.69,367.29-7.6,222.58,1.08,145.63c3.97-35.23,15.9-41.23,45.51-55.49,19.32-9.3,39.25-16.44,58.03-26.97,27.05-15.18,48.79-35.48,74.41-51.59,22.07-13.88,31.02-15.07,55.59-4.76,17.35,7.28,33.92,17.83,48.8,29.16,57.21-24.38,124.76-25.24,181.89-.09,15.5-12.59,34.32-26.1,53.36-32.67,34.1-11.75,58.43,17.28,84.56,35,18.97,12.86,39.14,25.5,60.04,34.96,22.88,10.35,73.4,24.01,84.06,46.94,12.68,27.25,4.18,85.36-3.67,114.1-18.36,67.27-71.03,127.21-143.17,80.74-1.23-.79-1.99-1.25-3.54-.95ZM256.95,48c.58-.37,6.75-.44,7.99-2.49-1.79-4.1-38.34-20.67-44.46-22.54-3.47-1.06-12.62-3.31-15.78-2.8-7.78,1.26-41.41,29.65-50.84,36.25-35.64,24.93-64.29,35.37-102.27,53.73-4.79,2.31-18.62,9.22-21.66,12.62-9.63,10.78-9.18,50.78-7.98,65.24.92,11.13,2.87,22.29,5.31,33.19,1.29,5.77,2.44,12.97,5.69,17.81,10.68,45.05,48.47,92.88,99.3,65.8,28.56-15.22,38.05-41.86,39.7-72.8,1.39-26.12-1.6-52.29,3.25-78.25,1.52-8.15,4.79-15.76,6.75-23.75.08-.32-.09-.71,0-1,.37-.25.84-.59,1-1,.11-.28-.09-.68,0-1,2-.86,2.74-2.98,3-5,6.18-6.11,8.78-31.58,18.98-43.52,9.08-10.64,9.85-6.69,21.47-8.53,8.18-1.3,9.9-5.72,15.2-9.8,4.01-3.08,12.35-10.27,15.35-12.15ZM730.95,186c1.47-13.66,2.73-52.17-7.01-62.49-9.69-10.27-51.6-23.55-66.66-30.34-21.17-9.54-44.21-22.62-63.64-35.36-14.88-9.75-29.24-22.89-43.96-32.04-12.98-8.07-21.3-4.44-34.4,1.05-4.75,1.99-27.25,13.45-29.39,16.61-2.75,4.05.45,4.14,4.07,4.57,1.55,3.96,7.4,6.02,10.91,8.59,4.03,2.95,16.49,14.48,19.38,15.69,4.21,1.76,13.27-2.75,18.69,1.24,4.13,3.04,12.4,18.07,13.77,23.23.82,3.08.56,6.91,1.57,10.43,3.19,11.06,10.87,22.61,14.4,34.6,14.77,50.27-7.98,138.34,50.6,164.4,27.74,12.34,60.87,6.96,77.68-19.18,13.77-14.36,21.31-34.85,26-54,.14-.58-.14-1.4,0-2,.02-.11.68-.43,1-2,.12-.61-.13-1.4,0-2,1.7-.31,2.94-5.49,3-7,.03-.66-.05-1.34,0-2l3-23c.57-3.47.65-5.72,1-9ZM190.95,168c-6.18,13.31-2.03,47.4-2.96,64.54-.56,10.4-2.72,20.62-5.33,30.67-2.24,8.64-9.84,25.53-6.71,33.79-3.06,6.31-4.15,13.33-6,20-.16.57-1.18,1.6-1.54,2.91-3,10.94-4.92,22.27-8.46,33.08,6.55-.28,11-5.97,17-7.99.75-.11.93.98,1,1,1.22,6.23-6.8,11.81-10.53,15.97-.81,1.94-7.2,2.56-6.46,4.51,2.73,7.27,33.76,17.45,41.91,17.6-5.62,28.59,17.8,45.93,38.76,59.73,80.37,52.9,164.2,58.88,248.99,11.36,17.74-9.94,43.6-25.55,53.49-43.51,5.28-9.58,6.51-17.95,3.91-28.57,14.27-1.58,27.62-7.55,39.92-14.61.35-1.4-14.99-17.12-15.04-19.98-.14-8.31,12.03,4.88,13.56,5.49,1.3.52,1.74-.1,1.43-1.42-1.56-6.61-4.88-14.31-6.66-21.35-2.65-10.46-6.03-23.14-7.27-33.73-.52-4.43.46-9.17-.26-13.74-1.68-10.73-9.72-23.67-11.76-36.74-1.07-6.82-2-17.83-2-24.5v-37c0-4-1.29-12.03-2-16.5-6.49-40.79-41.01-81.98-75.69-102.81-95.46-57.34-252.68-25.87-289.03,88.59-1.21,3.82-2.73,9.24-2.28,13.22ZM456.95,523c6.14.97,8.32,4.15,13.29,6.21,7.67,3.18,16.6,3.38,24.7,4.79-7.79-16.67-12.17-34.68-14-52.99-19.51,9.51-39.42,18.2-60.79,22.7-34.62,7.3-62.91,6.19-97.22-2.2-17.61-4.3-34.48-11.21-50.98-18.51-1.02,8.62-2.42,17.69-5.01,26-2.86,9.18-8.28,16.26-11,25,1.26.19,2.85-.24,4,0,9.11,1.91,17.09.58,25.33-4.18,1.83-1.06,5.5-3.42,5.67-5.82,1.08-.2,2.41-1.5,3.99-1,.06,2.99-.06,6.01,0,9,.01.57-.05.95,0,2,.84,16.69,7.51,31.95,19,44.22,1.42,1.52,9.64,9.16,11,7.78-.82-9.57,1.3-18.69,3.01-28,.22-1.19-.16-2.72,0-3.99.66-.67,3.24,1.32,3.99,1.99,2.64,10.62,8.31,21.84,14.61,30.89,3.95,5.67,10.88,14.52,15.87,19.13,1.91,1.76,11.15,8.79,13.08,8.98,4.36.44,18.15-12.79,21.42-16.53,8.88-10.19,14.28-21.11,19.03-33.47,1.41-3.68,2.25-11.66,7-11-.44,6.05,2.46,11.63,2.98,17.52.41,4.55-.32,9.43.02,14,.08,1.09-.56,3.33,1.49,2.48.52-.22,7.62-6.49,8.56-7.44,11.95-12.17,26.19-38.49,20.95-55.55-.16-.52.11-1.37,0-2Z"/>
    </g>
  </g>
</svg>