<?xml version="1.0" encoding="UTF-8"?>
<svg id="Layer_2" data-name="Layer 2" xmlns="http://www.w3.org/2000/svg" viewBox="0 0 734.39 923.08">
  <defs>
    <style>
      .cls-1 {
        fill: #d2ae81;
      }

      .cls-2 {
        fill: #be5a14;
      }

      .cls-3 {
        fill: #cc5323;
      }

      .cls-4 {
        fill: #8a3707;
      }

      .cls-5 {
        fill: #ba5915;
      }

      .cls-6 {
        fill: #a73410;
      }

      .cls-7 {
        fill: #6a2705;
      }

      .cls-8 {
        fill: #b04f11;
      }

      .cls-9 {
        fill: #bc5b16;
      }

      .cls-10 {
        fill: #551f04;
      }

      .cls-11 {
        fill: #f6dcb2;
      }

      .cls-12 {
        fill: #8b3908;
      }

      .cls-13 {
        fill: #f5dab0;
      }

      .cls-14 {
        fill: #9e3d08;
      }

      .cls-15 {
        fill: #863507;
      }

      .cls-16 {
        fill: #f6e8c0;
      }

      .cls-17 {
        fill: #191105;
      }

      .cls-18 {
        fill: #edba61;
      }

      .cls-19 {
        fill: #181106;
      }

      .cls-20 {
        fill: #edba62;
      }

      .cls-21 {
        fill: #cfab80;
      }

      .cls-22 {
        fill: #7c1f06;
      }

      .cls-23 {
        fill: #594436;
      }

      .cls-24 {
        fill: #d17119;
      }

      .cls-25 {
        fill: #d4af82;
      }

      .cls-26 {
        fill: #dfbb89;
      }

      .cls-27 {
        fill: #873607;
      }

      .cls-28 {
        fill: #ebaf69;
      }

      .cls-29 {
        fill: #ecb45d;
      }

      .cls-30 {
        fill: #7b1f06;
      }

      .cls-31 {
        fill: #d3b082;
      }

      .cls-32 {
        fill: #2e1f13;
      }

      .cls-33 {
        fill: #1a1104;
      }

      .cls-34 {
        fill: #99280c;
      }

      .cls-35 {
        fill: #f5dbb0;
      }

      .cls-36 {
        fill: #893707;
      }

      .cls-37 {
        fill: #f4ddb4;
      }

      .cls-38 {
        fill: #f4ddb5;
      }

      .cls-39 {
        fill: #853507;
      }

      .cls-40 {
        fill: #8d3908;
      }

      .cls-41 {
        fill: #f2dcb1;
      }

      .cls-42 {
        fill: #171106;
      }

      .cls-43 {
        fill: #eab45e;
      }

      .cls-44 {
        fill: #d5b284;
      }

      .cls-45 {
        fill: #1a1105;
      }

      .cls-46 {
        fill: #ad4c0f;
      }

      .cls-47 {
        fill: #181105;
      }

      .cls-48 {
        fill: #120902;
      }

      .cls-49 {
        fill: #cb5220;
      }

      .cls-50 {
        fill: #a83410;
      }

      .cls-51 {
        fill: #d5b283;
      }

      .cls-52 {
        fill: #a94a0e;
      }

      .cls-53 {
        fill: #843607;
      }

      .cls-54 {
        fill: #bc5914;
      }

      .cls-55 {
        fill: #722b05;
      }

      .cls-56 {
        fill: #ba5815;
      }

      .cls-57 {
        fill: #f4deb5;
      }

      .cls-58 {
        fill: #a02c0e;
      }

      .cls-59 {
        fill: #d5b184;
      }

      .cls-60 {
        fill: #b04e11;
      }

      .cls-61 {
        fill: #bd5914;
      }

      .cls-62 {
        fill: #a93e0e;
      }

      .cls-63 {
        fill: #bf5d16;
      }

      .cls-64 {
        fill: #f6ddb4;
      }

      .cls-65 {
        fill: #f2cd93;
      }

      .cls-66 {
        fill: #af4e10;
      }

      .cls-67 {
        fill: #9f2c0e;
      }

      .cls-68 {
        fill: #ae4d10;
      }

      .cls-69 {
        fill: #aa4b0e;
      }

      .cls-70 {
        fill: #f3dbb2;
      }

      .cls-71 {
        fill: #b85512;
      }

      .cls-72 {
        fill: #f6dcb1;
      }

      .cls-73 {
        fill: #f1dbb3;
      }

      .cls-74 {
        fill: #8a3808;
      }

      .cls-75 {
        fill: #ac4c0f;
      }

      .cls-76 {
        fill: #b15011;
      }

      .cls-77 {
        fill: #d2ae82;
      }

      .cls-78 {
        fill: #d6b184;
      }

      .cls-79 {
        fill: #d5b082;
      }

      .cls-80 {
        fill: #191005;
      }

      .cls-81 {
        fill: #f4dab0;
      }

      .cls-82 {
        fill: #ac4c0e;
      }

      .cls-83 {
        fill: #4d1c04;
      }

      .cls-84 {
        fill: #d3af82;
      }
    </style>
  </defs>
  <g id="Layer_1-2" data-name="Layer 1">
    <path class="cls-33" d="M166.98,435.08c-4.88,6.35-23.36,16-31.5,16h-18.5c-.26-1.77-.06-2.19,1.04-3.46,1.24-1.43,13.19-9.99,10.95-12.54-7.51,5.79-20.5,13.33-30.17,12.66-4.58-.32-10.26-2.62-14.37-2.69-5.56-.09-12.98,3.16-18.45-1.48-2.44-2.07,3.07-4.9,3.96-6.25,1.21-1.83,6.27-12.04,5.05-13.23-25.59-2.8-42.46-28.2-38.02-53-1.66,1.05-3.12,4.92-3.72,6.76-1.13,3.45-1.97,7.6-2.27,11.23-2.26,2.47-7.13-8.76-7.51-9.98-4.38-13.85-2.02-26.64,2.51-40.01C22.2,340.57-.01,335.84,0,332.58c4.14-4.01,10-6.77,13.42-11.56,9.11-12.77-1.99-32.74-2.48-47.39-.39-11.77,3.33-25.15,6.03-36.55-3.47.8-9.27,14.94-10.49,14.98-4.29-8.93-2.57-21.89-.38-31.36,12.1-52.17,57.6-71.36,89.85-108.15,12.33-14.07,21.49-31.04,34.02-44.98l-12.99,4.49c6.45-15.97,21.54-29.97,36.64-37.85,5.31-2.77,11.4-4.14,16.34-7.64,0-.5-6.6-5.86-7.62-6.36-1.93-.95-9.36-.82-7.35-3.12.69-.78,8.92-3.65,10.57-3.94,15.46-2.67,35.5,2.89,46.91,13.76,25.56-16.65,58.8-23.32,89.02-25.83,39.69-3.3,80.13,1,118.49,11.49,23.05,6.31,45.3,15.7,65.5,28.46,17.91-10.84,44.24-17.65,64.49-10.44,1.31.47,10,4.16,9.02,5.47l-13.99,6c28.67,4.26,53.73,24.18,56.99,54.01l-3.5-1.99c-.42,2.84,3.54,6.68,5.31,9.69,10.18,17.22,17.35,32.99,29.78,49.22,21.14,27.62,51.3,49.68,54.4,87.6,2.25,27.53-10.11,56.91,10.99,80.01,2.45,2.68,5.35,4.58,8.02,6.98-8.61,3.42-17.46,5.28-25.99.5,11.11,26.21,10.45,57.92-10.11,79.4-.69.72-11.03,10.23-10.91,7.09.96-5.53,3.15-11.64,3.91-17.09.17-1.24.99-6.15-.88-6.39-1.26,10.89-10.22,19.48-18,26.51-10.09,9.11-34.48,21.56-24.88,38.85,1.54,2.77,8.77,6.51,5.62,9.4-12.91,5.09-25.99,5.32-37.74-2.76,0,5.82,1.52,11.5.88,17.4-.29,2.68-4.52,14.56-6.4,15.59s-1.91-3.6-2.99-4.99c-2.14-2.77-12.19-3.69-16.01-3.99-1.18-.09-5.48-.83-5.48.98,5.61,2.14,14.11,10.02,12.99,16.44-.26,1.49-2.01,2.74-1.84,3.89.23,1.6,14.24,26.08,15.85,28.17,2.88,3.74,8.64,6.6,11.99,10.01,28.21,28.65,57.4,73.03,71.18,110.82,6.62,18.17,10.06,37.4,16.37,55.63,10.81,31.28,27.29,59.11,35.97,92.03,10.08,38.21,15.48,78.47,13.49,118.01h-9l-2.13-1.72c5.15-65.81-13.64-131.32-42.49-190.54-7.7-19.2-13.02-38.68-18.33-58.6.71-3.05-17.1-41.92-16.92-39.76,1.64,20.22,2.56,36.36-.05,56.94-1.12,8.87-6.27,41.15-11.13,46.14-.57.59-1.25,1.08-1.95,1.55.32,3.58-1,7.43-2.26,10.8-6.17,16.6-16.52,33.24-25.98,48.27,7.73-5.27,15.78-9.92,24.16-13.93l2.07.86c11.64-7.97,27.98-5.72,40.82-1.3,3.22,1.11,11.44,5.13,9.24,8.37-.68,1.01-22.51-.2-23.99-.89-.05-1.87-.71-1.83-2.07-1.19-2.32,2.87-9.36,3.44-12,1l-1.2,1.61c-51.75,16.4-76.46,76.57-72.27,127.77l-1.53,4.62h-10l-1.52-1.5c-1.47-10.98-1.16-22.13.94-33.44l-2.5,4.39-3.79,29.63-2.13.92h-9c-.47-.78-.9-1.58-1.2-2.43-1.79-5.05,4.64-42.59,7.49-48.52.37-.78,1.01-1.43,1.72-2.05l-1.34-3.83c2.62-11.41,4.4-22.95,5.31-34.6.35-2.52,1.91-2.94,4.23-2.39,1.17.28,4.94,20.78,4.29,23.3-1.51,7.97-1.01,10.8,1.5,8.52l-.55-1.72c3.37-15.39,3.55-31.15.55-47.28-2.52-1.1-3.94-6.99-2-9-.73-2.02-1.28-3.75,1.28-3.46,2.96.34,10.66,11.98,11.76,15.39,6.11,5.4-4.33-18.45-4.03-17.46-4.69-24.32-5.82-49.06-3.41-74.21.76-.68,1.67-1.25,2.71-1.29,4.3-.14,7.85,21.25,7.58,25.82l2.11-.8c2.47-21.22,4.33-42.47,5.59-63.78,3.08-8.6,9.42,14.07,9.14,16.21,3.78-13.24,6.49-26.54,8.13-39.9l2.14-2.54-1.87-8.89c-.91-40.02-11.81-79.65-29.83-115.29l-.3-4.82-2.6-.65-4.43-7.92c-14.69,17.32-31.5,34.94-50.97,46.57l-.6,2.34c-22.89,20.15-44.79,41.39-65.69,63.73-42.74,47.31-47.23,115.94-23.71,173.43-.34-.06-.62-.14-.67-.29-.55-1.78-1.05-4.21-1.3-6.06-.44-3.21-.84-12.03,1.97-13.14.66-2.11,1.2-2.27,2.98-1.24,2.66,1.53,6.87,30.53,7.51,35.65,3.96,31.52,3.52,64.04.13,96.1-.12,1.1-.53,2.18-.98,3.28s-1.03,2.17-1.65,3.21h-9l-1.89-1.12,2.67-23.99c-40.45,2.12-82.75-8.05-116.91-29.5l.94,1.85c-2.02,10.44-1.35,21.21.27,31.65.7-2.75,4.07-15.66,6.23-15.83,2-.16,3.68,1.15,3.43,3.21-.88,10.34-.26,20.63,1.86,30.9l-1.61,2.83h-15l-2.61-2.41c-7.03-19.68-8.21-38.16-6.28-58.17l-.99-.54-11.93,60.32-2.19.8h-9l-1.81-1.27c4.27-23.29,8.3-46.3,12.08-69.03-24.77-17.72-45.71-40.83-61.75-66.69-30.27-48.81-35.79-98.41-40.65-154.08-2.57-16.55-7.46-32.96-13.7-48.29-1.06,3.99-2.78,6.11-5.18,6.35,1.31,5.74-4.53,11.75-8.63,15.64.68,1.94,11.13-5.8,11.39-7.43l2.24-.2c1.27-7.41,9.5,2.26,2,4l-1.99,7.2c-6.33,10.76-10.95,22.21-13.87,34.36l-2.14.94c.77.1,1.87.29,2,.88,1.05,4.73-.36,13.09-2,17.62.85-7,5.38-12.81,10.76-17.2,10.04-8.2,9.49-2.08,5.88,8.63-3.49,15.83-5.67,36.03.87,50.81l1.49-1.23c-.92-.1-.86-.45,0-1l-.58-12.4c4.53-10.95,7.27,5.21,7.85,14.42,2.15,13.35,4.39,26.4,6.73,39.14v3.84c3.08.47,4.24,6.6,1.56,7.71l.44,2.29c1.63,4.87,2.98,10.96,3,16.24.24,46.94-2.41,92.38-7.08,139.14-.16,1.63-.64,3.23-1.13,4.84s-1.12,3.21-1.79,4.78h-8c3.37-48.63,8.82-97.67,7.04-146.54-.43-11.79-1.12-29.57-5.55-40.45-1.55-3.82-5.43-8.5-7.37-12.63-7.16-15.17-11.23-30.47-11.13-47.38-2.82,1.81-2.55,6.74-3.02,9.48-.86,5.02-4.86-4.66-5.46-6.49-3.87-11.7-4.11-31.09-1.06-43.03,1.74-6.81,5.9-14.4,8.55-20.96-4.33,1.64-18.07-2.49-18.05-7.52,0-1.58,10.8-8.84,12.71-10.84,5.33-5.59,12.89-19.78,15.43-27.14,1.42-4.11-.86-8.81-1.06-13.01-.52-10.4,2.34-19.77,7.18-28.79.92-1.71,4.5-5.64,4.64-6.35s-3.55-10.78-3.83-13.86c-.54-6,.5-11.74,1.99-17.49-5.18,2.65-31.99-4.07-30.92-10.37.23-1.35,16.26-12.57,18.93-15.13,9.36-8.95,16.7-20.78,18.99-33.51-2.1-1.46-4.1-.13-6,3.98l-1,.02Z"/>
    <path class="cls-11" d="M516.98,571.08c4.83,3.96,8.3,9.47,10.4,16.55,7.91,23.29,16.16,46.43,24.77,69.42,10.66,16.59-6.26,8.92-14.51,4.72l-11.25-7.36c9.17,20.84,17.14,40.78,16.58,63.96l2.77,22.33c.02,2.98-1.33,3.18-3.84,3.12l-11.29-11.71c8.61,26.99,15.03,54.89,16.33,83.27,1.82-8.04,2.52-16.34,2.11-24.88.27-3.22,1.59-3.11,4.23-2.37.82.23,7.64,13.41,5.7,14.95,1.35,2.9,2.12,5.75,2,9,1.65,13.03,2.1,26.16,1.36,39.39l-2.48,8.99,1.12.63c-.95,2.44-.77,5.86-3.99,7,1.1-6.07,1.73-14.27.91-20.41-.38-2.82-2.04-5.54-2.68-8.32s.69-7.81-2.23-9.26c-.24,13.59-3.68,26.72-6.01,40l-1.56,1.32c-5.63,15.46-10.06,31.63-12.86,48.05l-2.58,3.63h-95c-.99-.99-1.63-2.16-1.9-3.52,8.65-49.86,2.78-100.22-10.63-147.87-.94-2.79-.43-4.49,1.53-5.1-.78-.09-1.96-.34-2-.89-.39-4.98-.67-25.78.73-29.45.13-.33.64-.52,1.27-.66l-.86-.58c-1.36,9.57-9.34,23.59-10.71,4.74-2.78-38.33,16-80.18,41.59-108.04l60.7-61.17,2.27.55Z"/>
    <path class="cls-72" d="M653.98,788.08c2.81-1.12,4.45-.32,2.54,2.49-6.27,4.27-11.75,9.84-15.12,16.69,18.03-1.75,32.09,6.47,43,20.4,13.91,17.77,23.68,38.42,27.51,61.01,1.81,10.68,3.98,24.64.06,34.41h-123l-1.61-3.34c.52-19.1,1.08-37.41,8.75-55.23l-7.71,12.43c-.95.28-2.87.76-3.19.46-.53-.5-.82-1.26-1-2.09-.96-4.36,5.69-24.62,7.79-29.99,9.7-24.78,26.03-44.8,49.96-56.25,4.41-.86,7.63-.82,12-1Z"/>
    <path class="cls-66" d="M631.98,737.08c10.44-29.36,15.57-68.42,11.88-99.38-.66-5.55-1.96-11.87-3.86-17.14l1.97-.48c5.9,14.04,13.62,27.36,18.76,41.75,6.35,17.77,9.83,36.77,16.24,54.76,7.43,20.86,18.11,40.44,25.76,61.24,15.12,41.05,24.2,87.24,22.88,130.92-.14,4.65-1.16,9.53-.62,14.33h-13c.78-23.2-2.27-45.44-11.82-66.68-1.97-4.37-4.86-7.97-6.87-11.27-6.82-11.2-14.26-24.42-26.27-30.59-8.6-4.42-19.62-7.35-29.03-4.46,3.12-8.49,9.4-15.62,16.79-20.71,2.57-1.77.73-1.19-.8-1.29.14,0,.64-.84,1.46-.86l24.54,1.85-10.01-5.47c-12.8-5.59-26.89-4.04-39.98-.52-2.31,1.64-2.69.93-1.99-1.81,5.12-4.56,9.06-10.51,11.68-16.9-5.33,6.73-17.51,18.66-15.01,2.49,3.01-9.93,5.46-19.85,7.32-29.78Z"/>
    <path class="cls-84" d="M267.98,923.08h-24l-2-.67v-31.88c-.94,3.63-5.12,10.61-7,4.54-1.11-41.4-21.67-78.87-44.2-112.16-6.38-11.21-7.31-14.8-9.35-27.32-.02-.14.59,2.38-.44,2.49l-.81-.67c.11-3.27-.6-6.2-1.19-9.33-1.46-7.49-2.34-14.8-2.65-21.93-4.84-22.62-7.28-45.62-7.33-68.99l-6.59-39.97c-.91-5.36-.56-10.08,1.56-15.11.07-1.14,1.67-3.22.99-5l-2.99,1c-2.89.31-5.95-5.32-5-8,1.93-3.57,3.19-8.15,5.99-11,6.13,17.2,12.28,34.47,14.87,52.64,4.87,34.12,4.63,64,15.1,97.89,15.14,48.98,45.71,91.82,86.85,122.16l.07,4.67-11.88,66.64Z"/>
    <path class="cls-13" d="M180.98,758.08c.05-1.11-.69-3.26.99-3,2.49,19.33,16.82,34.99,26.18,51.32,15.84,27.65,28.75,58.23,28.84,90.67l6.98-16.99v42.99s-69.99,0-69.99,0c4.68-49.05,9.19-97.99,8.05-147.54-.13-5.67-1.3-11.51-1.05-17.46Z"/>
    <path class="cls-77" d="M315.98,923.08c-1.63-11.34-4.07-23.67-2-34.99-3.06-.56-1.53.95-2.09,2.36-2.88,7.3-3.79,10.25-4.93,18.13-.26,1.75.51,1.68-1.97,1.5-1.87-14.34-4.16-28.77-.5-43.01,36.36,20.34,77.48,31.6,119.5,29.01l-3,27h-105Z"/>
    <path class="cls-79" d="M513.98,566.08c3.1-.71,5.18,2.63,3,5l-61.51,61.99c-28.34,30.73-44.71,72.96-40.48,115.01,1.47-.23,1.88-1.88,2.51-2.98,1.2-2.06,4.79-11.36,5.49-12.02.09-.08,2.11-.38,2.01.52-.1.92-1.02,1.71-1.02,1.98v31c0,9.45,7.95,32.28,9.87,44.13,3.79,23.39,6.43,51.22,5.12,74.86-.7,12.51-3.91,24.92-3.99,37.51h-5c2.37-24.46,4.22-48.87,2.99-73.49-.85-16.99-3.6-45.52-8.72-61.33-.55-1.69.45-2.63-2.27-2.18v19.5c0,.42,3.56,4.03-.51,1.51-19.37-41.18-20.87-90.89-4.26-133.27,16.66-42.5,61.6-77.68,94.76-107.74.71-.43,1.3-.68,2,0Z"/>
    <path class="cls-25" d="M641.98,789.08l1.49,2c-33.82,14.11-52.96,51-57.48,86l8.16-13.33,6.84-8.16c-3,11.43-8.2,22.3-9.92,34.09-1.57,10.83-.53,22.49-2.1,33.4h-22c-2.75-22.91.2-46.48,8.52-67.98,11.2-28.98,34.34-59.75,66.48-66.02Z"/>
    <path class="cls-44" d="M546.98,870.08c-3.07,17.55-7.17,35.09-8,53h-9c1.09-7.25,2.21-14.31,4.08-21.42,2.23-8.48,6.35-22.39,9.85-30.15.82-1.81.94-3.15,3.07-1.43Z"/>
    <path class="cls-24" d="M173.98,431.08c-5.17-.65-3.51,6.48-7,4,2.83-3.69,6.04-10.44,7.01-14.99,1.76.3,1.12,5.24,1.03,6.57-.13,2.01-.79,3.04-1.04,4.43Z"/>
    <path class="cls-8" d="M442.98,29.08c14.62,5.58,29.69,14.18,42.66,22.83,14.44-9.17,31.08-15.12,48.33-15.82l-13.33,6.15-9.66,7.82c18.28-1.4,37.04-.22,53.98,7.53,9.55,4.37,17.58,11.98,22.02,21.47l-16.74-8.75c-4.51-1.59-9.39-3.14-14.26-2.74,4.41,4.16,11.04,5.46,15.93,9.07,18.84,13.91,32.37,49.98,45.83,70.17,19.19,28.78,57.44,57.14,61.21,92.79,2.89,27.35-8.83,57.47,10.02,81.47-10.33-4.1-17.8-12.83-23.17-22.32-2.85-5.03-4.54-10.95-7.34-15.7-.76-1.29.18-2.52-2.48-1.97,4.22,31.08,25.37,54.79,22.98,87.48-.39,5.31-2.49,14.36-4.89,19.09-.35.69-.55,3.43-2.09,1.43-.33-.43-1.15-8.64-1.69-10.82-2.18-8.75-7.24-25.67-12.12-32.88-.5-.74-2.04-3.55-3.19-2.3-.55.59,3.57,12.6,3.87,15.62,1.67,16.6-1.23,31.38-11.88,44.38-4.54.19-2.18-3.43-.03-5.66,1.61-8.82,1.61-18-.5-26.76-.81,10.85-4.84,21.41-11.91,29.75-3.34,3.94-12.53,13.92-11.29,4.41,8.48-19.2,8.73-41.92-4.91-58.75-11.86-12.09-19.89-24.79-19.33-42.54-4.57,9.34-3.83,20.11-2.03,30.1,6.19,25.1,12.51,55.87-9.69,74.77l-2.52-1.28c1.03-15.98-1.94-31.69-7.02-46.84,1.62,20.67-1.78,38.28-8.72,57.58-1.36,3.79-9.17,19.6-11.82,9.84,5.94-20.7,6.53-40.91,1.77-60.62,1.15,2.16,2.79,11.4,2,13.11-.34.74-1.22,1.09-2,1.39,2.31,1.95,2.23,5.23-.23,9.84-8.89,15.6-17.05,31.33-24.47,47.21-.52.32-1.04.56-1.51.5-3.87-.47-3.73-16.69-2.96-20.26l7.95-24.57c2.3-9.84,1.75-20.29-.49-30.25-8.1-23.95-13.51-46.52-9.55-72.02-3.69,11.1-6.02,22.69-4.79,34.3l3.25,31.1c1.97,13.19-6.64,41.81-18.59,48.13-4.23,2.24-5.24,2.02-4.28-2.94,7.84-17.95,12.68-37.98,5.83-56.96-11.74-20.23-8.66-43.94,3.3-63.44,17.3-29.35,37.93-64.98,29.95-100.05.19,35.67-13.08,64.93-35.13,92.42-10.05,14.56-16.12,31.71-17.09,49.19l2.45-.24c2.08,1.2,7.81,14.18,4.37,15.54.85,6.24-.85,18.83-2.3,25.2-3.18,14.04-12.49,29.78-26.7,34.79,9.79-11.19,14.77-25.26,16-39.99,3.16,2.44,4.31.89,3.44-4.65-1.49-5.7-2.13-11.33-1.91-16.89-.6,2.1-1.77,2.95-3.53,2.54-3.7-29.03-3.3-45.06,9.14-72.36,7.73-16.96,20.35-32.42,25.38-50.62,7.72-27.96,3.03-92.02-15.92-115.15-.85-1.04-.02-2.5-2.6-1.87,5.87,14.44,7.9,29.79,10,44.99,2.56,27.46,2.17,55.64-10.47,80.9-.65,5.89-1.82,11.59-3.53,17.1-16.08,28.78-25.67,50.58-23,85,.14,3.78-.78,6.63-3.23,1.81-1.01-10.46-1.26-21.01-.43-31.48l-1.14,2.65c.18,8.99-2.56,14.66-8.2,17.03l-2.6-1.52c-3.75-11-13.01-17.92-23.4-22.23-24.65-8.13-40.51-15.08-56.88-36.35-28.63-37.2-41.53-76.27-36.71-124.08,2.25-22.32,8.44-45.22,22.59-61.83l-.53-1.89c8.54-10.61,19.97-22.14,31.44-29.72,2.26-1.49,6.9-4.1,9.09-3.39.96-.66,1.56-1.4,1.12-2.66,12.88-5.03,26.97-7.53,40.88-5.34Z"/>
    <path class="cls-64" d="M442.98,29.08c-7.5,1.76-15.5.88-23.22,2.28-4.63.84-14.69,3.76-18.78,5.72-1.09-.71-.98-.84.16-1.18-18.86,6.59-30.83,16.84-40.46,33.95,1.13.53,1.2,1.28.3,2.24-3.39,8.92-9.8,17.56-12.96,26.54-10.62,30.27-11.2,68.64-2.56,99.47,6.58,23.48,30.6,64.57,50.61,78.39,21.37,14.76,53.41,13.02,61.91,41.59l2.39,1.29c1.27,2.51,1.5,16.89-1.39,18.71.04,2.79-.29,4.79-1,6,.73,2.57.39,5.23-1,8,1,6.46-3.32,15.74-6.39,21.96-3.68,7.45-9.18,15.94-15.61,21.04l-.25,2.33c-3.53,3.54-24.34,20.28-28,19.84-1.99-.24-2.45-1.65-1.7-3.45.96-.04,10.83-16.84,9.22-15.7-22.61,18.17-49.66,36.14-76.13,48.68-46.13,21.85-103.12,18.69-133.12-26.97-5.82-8.85-15.16-30.67-6.84-39.89,2.21-2.45,7.48-6.26,9.82-2.83l2.4,1.83c2.73,20.33,10.13,34.03,29.36,43.04,75.78,35.47,150.03-35.18,184.51-96.56l2.72-1.31c4.79.85,9.86,7.04,11.73,12.01,1.88,13.71,3.54,1.53,4.07-4.63-.35-3.94-.14-7.59,1.2-11.38-.94-.13-1.98-.56-2.1-1.44-1.52-11.61-2.55-16.09-15.62-19.82-5.17-1.47-10.1-1.53-14.48,1.86,2.27.07,3.67.87,4.19,2.4.66.82,1.26,1.78,1.24,2.88-.08,3.57-8.03,14.77-10.73,18.01-26.02,31.2-63.87,27.75-98.6,14.44-5.86-2.24-25.1-12.75-28.56-17.75-1.05-1.52-2.78-6.36-2.53-7.71.51-2.77,32.36-24.39,37.17-27.61l.02-1.26.29-2.66c24.78-24.22-1.72-49.33-28.68-55-59.98-12.62-91.41,37.21-34.27,70.23l.65,2.43c-.21,1.19.79,2.46,3,3.82,5.7,17.24-1.94,24.95-19.01,29.02-21.1,5.04-45.3,3-59.99-13.85l-2.84-1.04c-4.63-5.64-11.03-35.05-5.31-41.36,2.83-1.04,4.22-2.57,4.15-4.6l.68-3.22c5.45-5.03,11.22-9.62,17.32-13.78,2.32-3.76,5.83-6.97,10.51-9.63,17.8-16.36,32.46-28.83,57.28-32.97,21.47-3.58,43.85-.22,64.26,6.89-21.77-13.98-49.02-13.97-73.3-7.26l-3.75-1.03-.58-2.21c21.21-16.57,29.66-42.01,36.47-67.73,5.85-22.11,9.78-45.02,10.16-67.8l1.95-2.27c7.74-20.16-1.57-44.82-22.07-53.6l.07-2.4c54.65-9.16,119.95-4.86,172,15Z"/>
    <path class="cls-68" d="M262.98,15.08c13.16,5.56,22.04,17.77,27.17,31.38,2.56,6.77,6.22,17.36,2.83,23.62,1.03,31.68-13.78,102.81-34.49,127.01l-13.51,12.99c-.09,3.17-10.09,5.84-10.99,1.97,17.55-25.75,11.67-66.96-26.9-64.96-3.93.2-11.86,1.48-7.93,5.4-8.92,5.87-16.16,11.07-21.91,20.7-16.22,27.19-4.78,57.16,28.87,55.25,3.67-1.56,5.58-.7,5.74,2.56l-22.98,21.63,1.1,1.44c-5.08,6.59-11.79,11.57-18,17l-1.43,1.73c-8.72,1.54-15.36,11.37-15.48,20.03l-2.09,1.24-.49,7.39-1.36.14c.03,13.71,2.66,27.15,7.19,40.37.14,3.11-.01,4.75-3,3.73-10.62-3.63-27.78-37.79-27.13-50.1l-.92,23.25c2.36,5.24,1.93,7.65-1.29,7.22-20.24-49.98-.52-65.03,19.52-105.98,7.87-16.09,5.28-20.98,6.44-37.56,2.53-36.35,24.2-71.84,37.51-105.49,3.45-8.72,7.17-17.36,9.5-26.48l-2.44-.46c-4.74,9.22-10.86,17.73-15.53,26.98-25.87,28.24-48.15,61.67-57.13,99.2-3.47,11.24-9.7,21.24-17.49,30.01-11.42,11.89-22.68,23.92-33.78,36.08-.91.58-1.71.98-2.11.74-6.04-3.73,5.11-22.11,9-25.87,15.77-16.41,26.64-36.37,33.65-58.03-14.53,16.4-29.55,32.19-45.06,47.36-8.58,9.31-16.2,19.81-19.92,32.03,1.43-4.27,17.24-19.34,15.75-9.59-8.6,18.94-12.84,38.23-15.94,58.73-1.3,10.12-12.83,37.67-23.84,40.5-1.15.3-3.2-.53-4.15-1.15,1.41-4.92,4.69-9.18,6.48-14.02,3.8-10.26,6.88-27.46,7.56-38.44.1-1.6.75-6.85-1.03-7.54l-11,23.99c-4.42-37.13,6.86-76.41,32.98-103.5-.93-1.6-2.24.37-3.1.91-15.95,9.94-26.23,24.22-37.89,38.6,1.23-5.09,2.7-11.12,4.51-15.98,14.8-39.69,55.93-60.73,82.99-91.01,18.99-21.24,31.18-49.81,55.48-65.52-6.67-1.75-13.11,2.25-19.49,3.51-.56-1.17,2.17-3.33,2.97-4.03,11.97-10.43,31.21-21.82,47.52-17.98.62-7.33-7.92-9.4-10.99-14.99,6.02,2.17,11.64,2.26,17.68,4.81s12.04,7.49,17.82,10.89c14.84-10.19,32.82-17.88,50.5-21.71Z"/>
    <path class="cls-67" d="M292.98,588.08c-4.09-1.19-.74-4.86,3.01-3.28,11.64-1.64,23.3-3.14,34.99-4.49,20.19,3.29,37.95.28,55.64-9.72l28.83-5.69c10.04-3.85,19.39-9.31,28.05-16.38,16.63-3.99,32.57-10.11,47.82-18.35,6.07,3.65,12.96,6.27,20.64,6.34,3.33.88,13.82,6.44,10.01,9.57-69.37,63.4-139.73,108.25-123,217-2.98,15.72-1.38,38,.21,55.83-5.56,16.14-45.61,11.21-58.7,9.35-33.11-4.69-58.51-15.25-85.49-36.57-3.08-2.43-16.32-12.95-14.73-16.95.22-.56,1.4-.74,2.85-.82,20.01,1.68,39.9,3.78,59.66,6.32,15.71,1.27,31.53.32,45.42-7.62,1.7-.97,6.99-4.78,3.78-5.55,8.87-7.78,10.66-15.14,11.99-26.51,2.01-17.24.3-34.73.97-52.03.68-17.48,2.77-35.43,3.08-52.92.34-18.78,4.3-36.82-17.99-42.09-15.94-3.77-40.06-3.98-57.05-5.45Z"/>
    <path class="cls-39" d="M180.98,77.08c-12.85,25.44-35.96,74.06-37.99,101.51-.62,8.38,1.44,20.97-.48,28.52-1.8,7.05-14.62,24.54-18.72,32.28-18.57,35.03-20.3,63.57-1.98,99.37,9.15,17.88,25.2,30.37,36.61,46.39,2.1,2.94,10.86,17.04,11.36,19.68,2.86,14.96-20.49,37.77-35.8,37.25,8.56-15.65,12.19-33.56,8.75-51.24l-3.75-9.75v19.5c0,3.28-3.45,11.64-5.2,14.8-7.9,14.28-23.42,23.9-39.8,24.69,2.1-3.16,9-10.94,9-14.49v-15.5c-2.84-.49-1.64.67-2.25,2.2-4.8,12.01-8.13,21.1-21.75,25.79,11.42-17.01-3.75-31.23-8-46.99,3.1-9.88,4.73-21.13,5.7-31.91l-6.29,8.4-2.41-.49c-.16.14-1.27-.35-1.78.18-.94.96-3.02,10.35-3.2,12.34-1.34,14.57,5.23,24.81,10.98,37.47-36.69-8.83-32.58-49.62-20.01-76.99-9,7.82-17.97,18.27-23,28.99-1.53.17-1.62-3.37-1.65-4.36-.58-19.21,13.8-35.24,19.65-52.63-8.14,8.06-15.94,18.6-29.02,16.53-1.85-1.5-.05-1.24.03-1.53,1.57-1.68,2.83,1.04,3.98.53,3.14-1.38,12.28-14.3,14.18-17.87,9.61-17.99,9.28-36.6,14.31-55.69,2.26-8.6,6.94-17.33,9.51-25.5.16-.51.27-1.63-.48-1.48-4.68,4.02-9.02,8.4-12.35,13.65-1.64,2.6-2.5,7.32-5.15,9.34,2.5-31.29,29.21-50.59,49.04-71.48,7.76-8.18,14.89-17.12,22.46-25.51,1.21,1.43.27,4.18-.19,5.81-3.34,11.98-12.83,31.79-19.89,42.11-8.72,12.77-24.62,24.33-24.94,41.06,13.62-17.9,36.83-34.99,46.89-55.11,6.89-13.77,9.22-31.55,16.43-45.57,12.08-23.97,27.64-45.55,45.16-65.77l2.02,1.45Z"/>
    <path class="cls-84" d="M159.98,297.08l2.39,2.69c2.88,21.08,17.51,39.87,38.59,44.44,4.29,3.09,8.78,25.24,8.64,30.49l-1.62,2.38c-16.8,2.62-10.94,21.61-6.05,32.55,23.46,52.51,90.3,58.87,136.72,34.62,20.35-10.63,50.05-28.08,67.8-42.2,3.32-2.64,8.17-6.07,9.54-9.96,1.58-.27,1.04,1.4,1.03,2.52-.07,8.02-7.14,14.9-11.04,21.47l17.92-11.57c4.14-3.21,6.09-7.31,11.08-9.42,4.66-3.4,9.53-6.6,14.63-9.6l2.37.6c-.7-4.27,9.23-12.48,8.89-5.08-.21,4.57-7.61,20.96-11.89,24.08-1.87,2.84-6.48,7.78-8.97,10.53-4.99,5.5-10.92,10.12-16.03,15.46,10.63-2.45,20.08-9.2,28.47-16.02,1.8-1.46,5.15-5.87,6.54-6.46,3.65-1.55,11.65-1.07,15.98-3.51-5.98,14.78-7.06,31.33-2.02,46.51,4.31,12.95,10.35,19.07,19.2,28.8.88.97.88,2.15,2.81,1.68,1.42-6.38.41-13.06,1.1-19.41.1-.96.44-3.76,1.9-3.58,4.12,10.72,15.7,20.19,26.98,23.03-1.64,11.77-10.28,17.2-19.48,22.96-1.48-2.96,5.82-20.58,1.01-20.97-2.53-.2-4.41,6.37-5.68,8.3-5.6,8.44-10.84,14.47-18.82,20.68-3.09,1.88-4.13-.74-3.22-3.82,5.75-10.73,2.51-24.31-7.04-31.75-9.43-6.31-17.67-13.69-24.74-22.17,2.86,9.88.47,40.69-9.07,45.17-1.78.84-2.59.98-3.31-1.23-2.34-14.25-8.75-27.95-18.72-38.18-2.64,7.9-5.28,14.9-9.94,21.93-2.07,3.13-20.67,23.87-22.3,24.1-1.9.26-3.28-.79-3.4-2.68,2.18-6.48,2.74-13.27,1.67-20.37-1.77,8.71-26.73,26.07-33.67,24.68-2.11-.42-2.41-1.61-2.32-3.7,4.49-5.78,7.61-12.05,9.35-18.8-7.21,10.21-13.51,17.73-24.26,24.44-2.06,1.28-12.79,7.75-13.78,7.69-2.11-.13-2.77-.68-3.39-2.76l4.72-15.63c-3.21,3.53-6.57,6.88-10.39,9.72-3.19,2.37-19.06,11.85-21.38,8.17.29-3.22,1.5-6.6,3.61-10.14,3.44-8.92,3.25-9.36-4.66-3.81-12.37,4.6-23.04,11.43-31.99,20.49-3.95,1.47-4.07.49-4.32-3.2-.45-6.75,3.79-18.19,6.87-24.4-6.94,4.78-13.13,10.64-18.74,16.93-1.6,4.83-6.56,8.58-7.82,1.65l3.42-18.73c-5.79-4.2-10.2-8.63-12-15.79-1.06,4.93-2.6,9.63-4.67,14.22-2.85,6.29-14.61,18.83-11.5,3.28-.31-6.2-.07-12.36.71-18.48-8.31,4.06-17.44,8.2-26.71,7.26v-3.1c3.12-7.1,8.51-12.63,10.98-20-10.69,10.97-19.92,18.57-36.37,16.88-1.02-.1-4.7-.4-4.61-1.87,24.54-11.54,36.06-39.05,38-65.01l11.6,19.88c12.95,17.26,29.8,28.54,50.6,34.4,51.53,14.53,97.14-4.57,134.79-39.28-18.47,3.53-32.82,16.49-49.49,24-57.7,26-117.88,8.64-143.37-50.65-7.52-17.48-12.41-30.04-21.14-47.36-1.16-.4-2.43-.87-3.18-1.9-6.23-8.63-9.77-26.65-10.79-37.28-.49-5.13-.17-16.3,3.97-18.82Z"/>
    <path class="cls-39" d="M496.98,339.08c-.19-1.43-3.75-11.63-4.5-13-.24-.45-1.15-1.25-1.49-.99l-1.02,3.99c-1.39.27-1.44-1.71-1.59-2.68-1.44-9.16,4.67-29.94,8.87-38.55,10.07-20.64,26.83-36.11,35.22-58.78,6.09-16.47,6.58-31.06,8.02-47.99.11-1.33.03-5.8,1.49-5.99.19,3.87,2.84,6.04,3.57,9.93,4.06,21.54-5.24,48.28-14.37,67.75-13.83,29.49-36.33,48.8-23.89,84.51,1.06,3.05,3.22,5.62,4.42,9.58,6.37,20.93.7,39.98-7.71,59.22,16.11-13.75,21.45-30.61,20.03-51.54-1.85-27.25-7.53-34.29,1.79-63.13.62-1.91,2.22-7.01,4.18-4.82-.49,12.27-2.25,26.73-.9,38.88,1.79,16.13,10.85,32.34,11.94,50.06,1.18,19.25-3.4,24.28-8.52,40.56-1.97,6.27-1.18,15.74.49,21.97l8.45-20.03c5.2-9.25,17.53-25.78,17.53-36.47v-14.5c1.9.31,1.64,2.1,2.12,3.38,7.62,20.31.87,38.15-2.12,58.61,1.59,1.77,6.17-7.7,6.71-8.78,9.51-19.36,10.95-40.18,9.99-61.43-.03-.74-1.26-3.83.8-3.76,4.45.15,10.26,33.43,10.59,38.48.13,1.98-1.54,12.35-.08,13.49,8.01-7.76,13.16-21.33,13.97-32.51,1.92-26.27-17.53-54.36,0-78.48-.21,8.67.38,18.95,3.34,27.17,3.57,9.93,12.84,16.88,18.48,25.52,11.95,18.32,10.14,40.11,1.21,59.3,14.08-11.42,22.37-27.55,19.99-45.99,2.55-.45,1.8.39,2.45,1.99,4.09,10.16,4.47,22.73,2.54,33.49-.41,2.3-4.34,3.81-1.99,5.51-11.34,13.85-31.76,20.24-36.01,38.99l-2.97-10.51c-1.13-7.88,1.95-16.37,2.02-23.97.02-1.6-.94-2.62-2.02-1.52-.59.6-5.32,13.99-5.74,15.77-3.39,14.48-1.05,27.89,8.73,39.22-9.9.21-21.79-3.61-26.19-13.3l-3.8-13.68c-8.15,15.52-1.19,30.9-.02,46.99l-14.64-9.85c-5.83-2.55-12.09-4.43-18.36-5.13-1.16.86,16.65,10.61,18.01,11.52.53.35,3.8.79,1.98,2.47-.33.3-6.8-1.8-8.66-1.92-18.05-1.17-29.91,2.36-45.25-10.66-4.22-3.58-13.08-14.5-13.08-19.92v-16c0-.35,1.78-2.68.99-3.49-2.29-2.38-7.34,12.57-8.46,14.03l-6.52,22.96c-13.18-21.88-12.24-46.4.16-68.32,11.23-19.84,22.76-34.01,11.07-58.44l-1.25.77Z"/>
    <path class="cls-81" d="M178.98,484.08c1.36,2.43.82,1.56,2.75,1.37,3.07-.3,7.33-1,10.28-1.85,6.05-1.74,11.22-5.19,16.97-7.52-3.07,7.36-1.68,14.75-2,22.49-.1,2.43-2.76,6.25.98,5.5,1.46-4.02,5.15-6.53,7.05-10.46,2.77-5.68,3.86-12.47,5.46-18.53,2.72,3.79,3.44,9.13,6.05,12.95,1.53,2.25,8.36,7.19,8.49,7.75,1.02,4.15-4.52,19.41-3.03,21.29s3.3-3.71,3.99-4.5c7.17-8.25,15.83-15.6,25-21.49-1.54,5.03-4.6,9.07-6.27,14.22-2,6.15-2.62,12.47-3.71,18.78,4.47-3.36,8.38-8.34,13.06-11.43,8.26-5.47,20.24-8.74,27.88-15.17.2-.17,3.48-5.33,2.98-.99-.85,7.38-2.58,14.02-6.92,20.1-1.17,3.64,18.75-8.22,19.91-9.09,3.33-2.5,7.62-7.25,10.63-10.39,1.6-1.67,2.32-5.97,3.06-.03l-6.11,19.99c7.23-3.83,16.69-8.85,23.01-13.99,7.61-6.2,11.76-15.47,19.01-21.99,1.43,5.09-1.8,10.05-3.32,14.68l-7.17,11.32c14.79-3.75,30.83-13.61,35-28.99,1.43-.29,1.06,1.13,1.31,2.16,1.14,4.76,1.17,14.29.59,19.24-.2,1.68-2.13,5.39-1.91,5.58,1.78,1.51,2.37-1.9,3.44-3.01,10.65-11.07,17.18-14.73,24.27-29.77,1.14-2.41,4.33-13.85,5.81-14.2,1.6-.39,2,1.41,2.72,2.27,9.89,11.7,16.5,24.24,18.26,39.73,8.82-10.69,9.94-23.2,9.55-36.54-.13-4.28-1.67-8.18-1.04-12.98.72-5.51,2.62,2.08,3.13,2.87,13.15,20.46,40.27,21.14,34.62,51.91-.47,2.58-4.59,6.35-.76,7.73-9.22,7.17-19.35,12.81-30.99,15,3.15-8.59,6.24-17.19,5.99-26.51-.03-1.19.74-3.73-.99-3.48-9.12,24.37-25.46,43.06-50.01,51.99l-1.8-1.25c1.88-8.14,3.15-14.72,3.8-19.75.49-1.26.6-2.71,1-4l-.88-2.23c2.14-4,3.75-8.23,4.84-12.69-8.53,10.49-17.07,21.64-23.96,32.92-11.14,8.13-22.22,14.28-35.99,17,5.16-11.32,12.82-22.18,13.49-35-8.6,14.31-21.85,24.46-37.5,30-5.32,1.76-4.61-2.19-3.3-6.1l6.66-13.68c-.77,1.29-1.89,1.29-3.36.78-3.42,3.66-6.75,7.67-10.47,11.03-12.27,11.03-28.88,17.3-44.52,21.97l13.5-32.99c-11.9,12.18-23.12,24.73-31,39.98-14.39-14.4-22.25-34.62-27.51-53.97-1.53-.25-1.17,1.87-1.47,3-2.22,8.61-2.42,18.51.48,26.98-25.95-8.29-35.65-30.68-30.01-56.99l-5.36,8.12c-4.45,8.63-5.57,17.29-4.64,26.87-15.71-11.83-16.49-29-8.99-46Z"/>
    <path class="cls-60" d="M601.98,657.08c-2.35-.97-4.27-3.12-5.74-6.43.93,5.1,2.61,31-3.19,32.06-1.42.26-2.58-.41-3.25-1.67l-8.46-19.73c-.49,28.98-1.95,57.57-4.36,85.77-.52,1.82-1.27,3.82-1.89,5.65-.52,1.55.88,2.86-2.1,2.34.25-9.97-.28-19.74-4.75-28.79-.66-1.33.65-2.76-2.25-2.2.79,26-3.35,52.89,5.54,77.95,2.58,7.27,9.63,12.14-.53,16.04-1.72-5.62-5.77-11.48-10.02-15.5-1.47-1.39-2.22-2.79-2,.5l-7.99-15c.26,8.2-.12,16.28-1.1,24.41l-4.9,16.59c.84-34.76-7.17-68.77-18-101.51l2.5.5,14.48,15.01c-.73-8.18-2.13-16.33-2.98-24.5s-.62-16.58-2.27-24.73c-3.07-15.17-11.14-28.6-15.73-43.27.81-1.52,1.73-.08,2.5.5,7.02,5.31,11.51,8.81,19.97,12.03,2.71,1.03,6.66,2.71,9.52,2.48-2.02-2.77-3.76-5.7-5.16-8.84-12.92-28.83-16.63-57.55-32.83-85.67-.97-1.68-1.77-3.47-3-5,1.4-1.64,3.37-3.13,5.92-4.46,16.6-7.53,28.77-16.57,42.12-28.54.91-.82,5.27-4.71,5.63-4.84.78-.29,1.5-.48,2.33-.16,19.91,36.52,33.67,87.28,32,129Z"/>
    <path class="cls-30" d="M351.98,767.08c2.24-.9,3.14-1.43,4.99-3,2.05,2.82-6.4,9.6-8.65,10.84-24.03,13.24-53.85,6.22-79.85,3.18-9.16-1.07-18.39-1.34-27.48-2.52,2.67,3.33,5.81,6.2,8.95,9.08,15.9,14.54,35.5,26.66,56.26,33.72,18.64,6.34,71.77,16.93,87.75,4.18,6.16-4.91,2.45-7.37,2.24-12.96-.56-14.19-1.93-28.98.66-43.19.34-1.86-.85-3.89,2.14-3.31,2.89,18.77,9.28,39.13,17.12,56.38,1.89,4.15,5.2,6.74,6.37,11.61,1.57,6.51,2.24,22.16,2.54,29.47.24,5.78.89,19.03-.04,24.04-.22,1.2-.32,1.94-1.64,2.36-.57.18-10.53,1.13-11.86,1.14-92.17.55-172.76-64.83-204.5-148,.4-2.75,3.73-1.77,2.87-.53-.54.78-.9.04,1.13-.47,3.83,15.05,13.16,19.33,27,23.5,27,8.12,88.27,14.82,114,4.5Z"/>
    <path class="cls-30" d="M521.98,546.08c-.77-4.96-3.38-1.7-3.91-2.06-.15-.1-.57-2.18-1.49-3-4.45-3.97-7.83-2.13-12.64-3.39-2.93-.76-7.41-2.39-10.18-3.63-.82-.37-.8-1.96-1.34-1.97-3.28-.03-22.34,11-27.87,13.04-6.54,2.41-12.68,2.76-18.48,4.58s-13.06,9.66-19.18,12.82c-14.08,7.26-24.95,6.41-39.11,9.89-4.71,1.16-11.46,5.83-16.54,7.46-15.55,4.99-22.72,3.92-37.9,2.63-13.69-1.17-24.87,4.7-37.54,4.33-1.64-.05-3.21-2.21-2.79,1.3-9.66-.84-19.29-2.28-29-2.01,1.21-10.45,2.34-6.85,9.4-8.1,8.26-1.46,16.58-4.46,24.27-7.72,1.81-.77,8.33-4.8,8.83-4.83,1.25-.08,4.12,2.6,7.01,2.72,7.89.34,20.03-4.21,26.99-8.06,1.15,1.7-1.63,5.12-.39,6.88.56.8,8.7,2.21,10.38,2.19,4.1-.06,12.38-2.27,16.46-3.62s18.94-9.64,20.47-9.53c.48.03,1.58,3.7,8.03,4.11,11.4.72,22.75-5.05,32.07-11.01,2.84-1.82,14.25-11.55,15.18-11.82,2.73-.8,6.86-.01,10.35-.65,16.84-3.09,33.51-14.84,45.45-26.55l.51,6.99c.93.66,10.8-4.76,12.66-5.82,5.51-3.15,11.78-7.27,15.84-12.16,2.28-2.74,7.37-13.85,8.16-14.05,2.64-.65,7.8.25,10.25,1.62.9.5,14.58,13.02,15.15,13.88.71,1.07,1.08,1.34.79,2.79-.25,1.22-9.67,12.86-11.34,14.76-8.45,9.61-19.06,19.35-28.51,27.99Z"/>
    <path class="cls-58" d="M167.98,538.08l2.62.7c3.71,8.19,10.14,18.31,19.45,20.05,20.22,1.43,39.82,11.17,55.01,24l-.08,2.25c-18.83.22-26.42.21-30.55,20.95-5.89,29.52-10.58,105-3.45,133.05.5,3.62-1.27.77-4,1-8.02-21.01-12.93-39.08-15.87-61.63-2.5-19.18-2.19-40.09-5.98-58.94-5.77-28.72-27.02-50.26-17.15-81.43Z"/>
    <path class="cls-43" d="M232.72,593.32c6.31-1.06,19.77.39,26.81.74,23.57,1.17,49.53,2.66,72.95,5.02,15.45,1.56,27.76-.04,28.2,18.46.64,26.65-2.63,56.14-3.62,83.04-.39,10.58.37,21.37-.09,31.99-.18,4.22-.44,14.02-1.47,17.54-3.22,11.05-13.83,13.3-23.98,14.01-24.6,1.71-80.2-.56-101.57-12.51-12.22-6.83-13.15-22.22-13.96-35.04-1.77-28.03.65-65.91,4.02-93.97,1.16-9.67,1.12-27.33,12.71-29.28Z"/>
    <path class="cls-34" d="M626.98,601.08c17.5,38.23,9.73,98.48-5,137l-1.57.06c-5.48,6.1-10.26,12.83-15,19.66-3.49,2.9-7.35,1.23-6.33-3.36,7.16-23.29,9.67-50.13,8.91-74.37,4.16-25.05,3.14-46.1-1-71,.46-5.08,2.4-7.74,5.82-7.97l4.06-3.57c1.58-8.95,6.47-6.45,7.07.89l3.04,2.65Z"/>
    <path class="cls-22" d="M607.98,680.08l1,2.5.98-3.49c.78,5.2.76,10.62.34,15.84-1.19,15-3.28,36.37-6.23,50.67-.4,1.94-4.16,10.48-3.1,11.48.66.62,2.55,0,3.43-1.11,2.91-3.67,5.41-8.57,8.6-12.36,2.73-3.24,6.28-5.75,8.47-9.53l.5,4c-9.27,24.23-22.37,46.72-37.01,68-2.32,1.56-8.15-18.15-8.54-19.95-.46-2.16-2.53-15.33-2.29-16.35.14-.63,6.53-7.8,7.87-10.17,5.99-10.57,6.32-21.38,10.24-31.76,6.55-17.36,12.5-28.26,15.74-47.76Z"/>
    <path class="cls-27" d="M125.98,326.08c2.29-2.04-.78-4.83-.7-7.33.13-3.94.54-7.67.65-12.14.15-6.47-1.04-14.62,4.04-19.54-.96,22.37,10.74,43.36,27,58-1.41-7.04-4.27-13.73-5.7-20.79-.74-3.7-3.35-23.95-1.28-26.2.13-.14.66.05.98,0l1,2.99,1.01-7c1.55,3.38,2.83,2.47,3.84-2.74,3.73-5,8.31,3.85,3.16,5.74-.95,3.36-1.86,9.08-1.99,12.51-.65,16.99,4.48,30.6,11.99,45.49-1.96,1.01-.66,3.32-.29,4.78,2.99,12,8.43,24.72,10.02,36.99.2,1.55,1.32,6.71-.71,7.22-1.04-3.84-3.45-7.6-5.6-10.91-15.82-24.3-36.24-39.48-47.41-67.09Z"/>
    <path class="cls-35" d="M163.98,602.08c-1.21,19.68,5.86,40.31,7.54,59.7,1.03,11.86.19,23.86,1.47,35.78,1.2,11.15,5.18,23.21,6,34.02.23,3.01-2.04-.38-2.03,1.01-.25,5.08,4.98,10.92,2.01,15.49-.65-3.45-1.53-5.48-2.16-8.35-3.72-17.05-6.64-34.33-8.85-51.65-1.42-.21-1.56,2.75-1.71,3.77-.56,3.71-.24,7.56-1.28,11.23-.95-1.05-.95-.71,0,1,.17,2.64-.11,5.35-.01,8-1.84-1.05-2.67-5.22-3.25-7.23-5.9-20.24-4.93-42,2.25-61.76-5.13,2.34-8.34,7.35-12.5,10.99l-5.49,9.01v-18.5c0-3.19,7.17-23.03,8.99-27.01,2.48-5.44,6.17-10.26,9.01-15.49Z"/>
    <path class="cls-30" d="M167.98,538.08c1.12-3.55,2.77-6.75,4.5-10,3.82,6.17,11.09,10.43,17.51,13.5,3.01,1.44,7.38,1.71,9.93,3.07,3.46,1.85,8.56,7.83,13.4,10.6,7.1,4.06,17.78,5.54,22.64,8.36,3.08,1.78,11.57,19.49,18.02,20.49.27,1.65-1.36.92-2.49.99-2.15.12-4.35-.03-6.5,0-2.12-.82-5.23-5.05-6.3-5.7-3.39-2.06-27.24-14.66-29.43-15.26-7.07-1.94-19.16-2.26-25.5-5.1-.67-.3-8.78-8.43-9.61-9.55-2.46-3.35-4.18-7.74-6.16-11.38Z"/>
    <path class="cls-40" d="M457.98,318.08c-.16-2.76,2.77-2.72,3.79-4.72,1.78-3.5,1.37-10.88,3.15-14.85l5.06-8.43c-1.49,13.85-1.57,28.12.02,41.99l.99-4c.58,7.48,3.45,15.95,3.98,23.52,1.4,19.66-8.4,43.6-25.98,53.48,4.6-6.97,6.34-16.98,9.98-24.52.15-3.05-1.07-.69-1.81.19-2.01,2.38-2.81,3.27-5.17,5.33-4.61.03-3.05-4.93-.61-7.47,4.64-3.81,7.73-6.49,9.36-12.36.85-3.06,1.78-10.2,1.36-12.79-2.15-5.13-3.19-10.26-3.11-15.39-.45-6.69.94-13.46-1-20Z"/>
    <path class="cls-4" d="M576.98,747.08c-2.47-6.04-.55-13.57-.13-19.62,1.2-17.25,1.57-34.54,1.68-51.87.05-7.45.67-15.09,1.46-22.51l12,28c1.38-.18,1.72-1.36,1.94-2.55.97-5.35,1.68-15.01,1.55-20.39-.04-1.49-1.33-2.28-1.43-3.6-.24-3.13,1.28-6.96-1.07-10.45,4.66-.64,1.93.94,2.65,1.97,2.55,3.67,4.81,6.69,6.35,11.02-.44,10.96-2.49,18.44-4.9,28.6-1.77,7.44-3.53,14.93-5.11,22.4-2.52,3.14-2.03-7.26-2.23-8.27-.8-3.9-2.44-9.51-3.64-13.41-.5-1.63.81-2.83-2.12-2.32-.38,20.2-1.41,43.47-7,62.99Z"/>
    <path class="cls-74" d="M631.98,737.08c1.15,1.64,1.12,3.34.81,5.24-1.48,8.97-4.65,17.71-6.52,26.54-.32,1.52.33,3.54-.28,5.22,7.42-4.3,12.36-11.4,17.5-17.99-.35,9.16-6.05,18.05-12.13,24.92-.65.73-1.97.96-2.21,1.27-.19.24.85.75.84.8-.3,1.12-16.91,8.81-20.33,11.17-6.69,4.6-13.06,10.57-18.17,16.83l-.49-1.48c11.06-13.11,20.21-27.81,27.85-43.16,4.25-8.54,10.01-20.54,13.14-29.36Z"/>
    <path class="cls-36" d="M511.98,566.08c17.28-15.67,36.22-30,50.04-48.97,1.31-.3,1.27-.27,2.05.6,1.88,2.1,4.42,7.63,5.92,10.37-.92,1.59-.69,2.11-2.4,3.2-5.42,3.46-8.62,8.39-14.12,12.78-5.09,4.05-34.82,21.79-39.48,22.02-.66.03-1.33-.02-2,0Z"/>
    <path class="cls-62" d="M626.98,601.08c-.4,1.63-4.35-1.75-4.48-1.96-.43-.73.96-4.87-1.02-6.04-3.98,1.66-1.24,5.75-1.5,5.98-.14.13-1.96-.15-2.93.6-2.09,1.6-2.29,4.36-7.08,3.43l.99,2.99-3.99,3c-3.25-19.55-8.7-38.6-15.99-57,13.42,15.14,27.48,30.42,35.99,49Z"/>
    <path class="cls-28" d="M270.98,14.08c2.42,1.95,5.55,2.58,8.04,4.46,16.04,12.13,22.51,31.28,16.31,50.61-.72,2.26.1,2.48-2.35.93-.49-15.09-6.86-33.02-17.46-44.04-3.64-3.78-9.73-6.25-12.54-10.96,2.7-.58,5.49-.58,8-1Z"/>
    <path class="cls-12" d="M493.98,243.08c-.46-4.51.29-11.91,1.24-16.26s3.32-7.2,4.45-10.55c6.39-19.06,9.04-38.51,8.36-58.73-.14-4.21-2.26-8.03-.04-12.46,4.6,33.45,7.15,62.02-9.83,92.66-1.18,2.14-3.51,4.16-4.17,5.34Z"/>
    <path class="cls-78" d="M388.98,543.08c-1.5-2.16.87-4.73,1.98-6.53,7.15-11.57,16.06-22.23,24.48-32.56.91-1.11-.06-4.48,2.53-2.43-3,6.6-4.64,17.86-8.98,23.52-4.78,6.23-13.58,13.32-20,18Z"/>
    <path class="cls-52" d="M67.98,367.08c3.9-3.28,4.78-7.44,8.47-11,1.16-1.12,1.85-1.03,2.28.49.27.94-.68,9.24-.9,10.87-.67,4.98-2.43,16.57-3.92,20.87-.37,1.05-2.46,1.45-2.93,2.77-2.02-7.48-3.07-16.28-3-24Z"/>
    <path class="cls-26" d="M560.98,861.08c-2.18,1.49-2.43,1.41-1.79-1.29,3.65-15.49,2.03-16.34.81-31.23-.46-5.62.56-11.29-1.03-16.97l1.14,1.37c.48-.04.72-.87.88-.88.48-.04.79,0,.98.51,3.63,16.2,5.17,32.71-.98,48.49Z"/>
    <path class="cls-53" d="M481.98,340.08l2.51-4.99c4.94.89,2.25,4.42,2.66,7.2,1.01,6.83,5.47,18.17-1.16,22.8.19-2.14-1.61-4.4-2.01-6-1.48-5.89-1.19-12.63-2-19Z"/>
    <path class="cls-51" d="M328.98,536.08c2.15-2.31,4.02-4.96,6.5-7,.63,7.41-6.46,14.74-8.28,21.73-.4,1.55-1.36,4.97,1.77,4.26-3.87,1.37-7.71,3.49-12,2.99l7.17-10.32,4.83-11.67Z"/>
    <path class="cls-57" d="M161.98,598.08c.25,1.45-6.52,7.27-8.3,8.2-3.33,1.73-7,2.07-10.69,1.79l7.41-7.07c2.58-3.44,4.55-7.15,6.58-10.92,1.6,1.78,4.63,5.83,5,8Z"/>
    <path class="cls-44" d="M405.98,550.08c-.84.31-10.11,5.12-8.99,1.52.83-2.66,3.95-6.22,5.16-8.84,2.03-4.39,4.08-9.18,5.82-13.68l1.74,1.23-3.74,19.77Z"/>
    <path class="cls-14" d="M572.99,838.08c.4-2.13-.64-11.04.11-11.89.33-.37,7.64-1.92,8.87-4.11l-6.47,13.02-2.51,2.98Z"/>
    <path class="cls-21" d="M164.98,703.08c.03.33-.02.67,0,1-2.46.49-2.2-1.09-2.68-2.77-1.11-3.9-2.25-10.65-2.36-14.69-.03-1.12-.63-3.79,1.04-3.53l4.01,19.99Z"/>
    <path class="cls-42" d="M407.74,169.34c30.9-4.19,55.22,26.04,52.23,55.23-2.78,27.15-37.55,34.9-59.81,29.84-22.33-5.08-32.55-15.74-31.58-39.45.94-22.94,15.7-42.43,39.16-45.61Z"/>
    <path class="cls-55" d="M385.02,136.04c-1.92-4.51,2.53-12.39,5.52-15.9,9.92-11.64,36.51-11.16,49.15-4.26,7.44,4.05,23.81,19.87,27.69,27.31,1.13,2.17,5.39,13.4,1.56,12.47-2.13-.52-12.2-12.75-15.49-15.54-14.73-12.49-28.31-17.59-47.43-11.49-3.44,1.1-19.15,9.25-21,7.42Z"/>
    <path class="cls-27" d="M555.98,348.08c-1.32,1.4-5.18-4.9-5.71-5.78-10.36-17.34-13.53-45.14-8-64.42,5.48-19.12,21.23-30.05,28.21-47.79l3.49-5.99c-.49,8.03-2.57,19.23-5.79,26.69-.9,2.09-3.08,3.89-3.93,6.07-11.52,29.66-18.99,60.02-8.27,91.23Z"/>
    <path class="cls-27" d="M580.97,327.08c-1.95-1.65-3.4-7.16-3.9-9.61-5.55-27.18,12.93-47.79,14.9-73.9.51-6.76.4-16.16,0-22.98-.49-8.49-2.75-17.09-3.5-25.5,1.5,1.25,2.65,2.65,3.7,4.3,8.23,12.86,9.95,32.23,8.84,47.24-1.35,18.33-13.94,32.25-17.6,50.4-2,9.95-.96,20.14-2.45,30.06Z"/>
    <path class="cls-27" d="M548.99,232.08c-.16-3.78.67-7.5,1.31-11.18,5.17-30.11,12.05-51.44-3.92-80.71-2.44-4.48-7.5-9.03-8.38-14.11,25.69,21.58,35.06,58.45,22.28,89.79-2.32,5.68-6.12,12.78-11.28,16.21Z"/>
    <path class="cls-15" d="M637.98,327.08c-.95,1.04-3.36-1.83-3.97-2.52-7.26-8.16-14-21.16-14.89-32.1-1.21-14.81,6.13-27.79,6.85-41.89.32-6.22-1.76-10.55-1.97-16.48,2.78,2.09,4.72,7.41,5.75,10.74,6.72,21.59-2.81,41.96,2.52,64.48.67,2.83,6.34,17.09,5.71,17.78Z"/>
    <path class="cls-39" d="M650.97,266.08c-2.29-1.83-3.23-7.77-3.74-10.75-2.4-14-3.06-28.93-8.75-42.25-.61-1.42-4.38-6.09-3.49-7,1.88-.44,2.37,1.07,3.5,1.99,14.64,12.02,16.75,40.75,12.49,58Z"/>
    <path class="cls-10" d="M430.98,164.07c-10.33-1.37-19.94-2.97-29.98.53-10.98,3.83-18.76,13.05-28.01,19.48,5.23-23.03,39.66-34.07,57.99-20.01Z"/>
    <path class="cls-65" d="M360.98,72.08c-.11,0-.51-.9-.97-1.01-.6,1.74-.22,4.73-3.03,4.01-.13-1.42-.12-2.65.52-3.97,1.42-2.94,12.5-18.14,15.05-20.97,7.75-8.6,16.89-10.73,27.35-14.63,2.88-1.07,2.23-.21,1.08,1.58-9.12,4.36-29.93,22.83-36,30.45-.88,1.1-2.94,4.52-4,4.55Z"/>
    <path class="cls-19" d="M251.98,299.08c-15.67-6-35.57-28.4-32.76-46.26,6.92-43.96,105.7-39.11,106.65,9.86.18,9.37-4.49,16.42-11.89,21.4.03.68-.01,1.26-.32,1.5-12.66,9.64-26.57,18.97-43.04,19.17.67,15.28.8,17.99,14.21,26.48,28.8,18.24,68.04,28.54,99.79,10.81,14.78-8.26,26.91-21.17,32.94-36.77l-1.58-2.18c-2.46-.24-6.86.81-6.04-3.47.11-.56,5.37-3.27,6.59-3.48,9.52-1.6,23.81,4.56,26.67,14.23,1.15,3.88.42,6.21.78,9.72-.2,5.76-2.01,7.84-5.42,6.24l-6.09-11.28c-.72,4.86-2.55,7.87-5.48,9.04-12.02,29.92-59.88,78.7-88.33,94.17-30.84,16.78-73.16,21.5-104.34,3-20.13-11.94-22.08-22.68-26.33-44.17-.94-4.77-1.08-10.1-2.29-15.21-.52-2.17-4.19-14.82-4.93-15.56-.62-.62-4.39-.91-5.95-1.55-20.84-8.59-32.18-25.44-34.82-47.68-.18-1.56.97-5.71-.99-5.99-1.41,3.51-2.36,7.29-3.76,10.79-.61,1.52.58,2.7-2.25,2.19.14-3.31-.22-6.7,0-9.99.24-3.77.48-6.88,2.11-10.39,2.34-5.04,10.61-14.61,16.89-12.61.26.08,3.98,2.99,3,3.99-.32.33-5.75.16-6.81,3.7-.72,2.4-.42,10.84-.18,13.79.68,8.41,3.79,18.21,7.98,25.52,13.72,15.01,29.07,21.11,49.61,18.64,7.87-.95,32.35-8.22,36.1-15.44.42-.8-1.02-17.2-1.59-17.91-4.54-.36-7.24-1.79-8.12-4.28Z"/>
    <path class="cls-42" d="M189.98,254.08l-9,3.5,29.99-28.5c-9.37,4.11-23.62.2-31.48-6.03-24.15-19.15-6.78-61.41,18.47-70.99-.08-2.13-10.24,1.93-6.98-1.97.92-1.1,11.66-4.48,13.75-4.76,6.82-.92,14.77-.14,21.22,2.26,20.15,7.52,23.33,40.76,14.76,57.71-.73,1.45-5.7,6.76-4.73,7.76,2.81-2.09,5.97-2.13,8.99-3,27.44-7.95,55.85-8.42,80.48,8.02l5.51,5.98c-28.51-12.57-65.49-17.32-94.66-4.17-17.82,8.03-29.02,24.5-46.33,34.17Z"/>
    <path class="cls-1" d="M313.98,284.08c.81-.33,3.53-1.36,4-.99-1.95,3.9-41.49,29.89-39.99,31.97.05.07,1.4-.19,1.65.29.81,1.58.15,2.88,1.79,4.78,2.19,2.53,15.07,10.41,18.66,12.34,22.23,11.94,57.64,19.2,81.1,8.32,15.34-7.11,30.4-21.03,34.79-37.71,1.64.16,4.41-1.02,3.89,1.37-1.39,6.38-11.13,20.29-15.86,25.15-25.7,26.47-60.88,28.9-94.29,16.24-9.39-3.56-36.17-16.13-39.47-25.53-1.88-5.36.43-11.4-2.23-16.71.25-1.59,9.02-1.4,11.19-1.81,17.56-3.36,21.56-12.29,34.78-17.72Z"/>
    <path class="cls-31" d="M251.98,299.08c1.81.69,10.56,2.66,10.87,3.13-.86,3.8,1.42,17.7.59,19.92-.47,1.25-8.98,7.15-10.78,8.12-24.11,12.99-61.5,14.26-76.68-12.18,2.96-1.67,5.72,3.77,8.07,5.43,15.42,10.87,43.4,11.06,60.29,3.43,2.34-1.06,7.89-3.85,8.91-6.09,1.12-2.47,2.06-13.01.97-15.51s-6.47-4.59-2.24-6.25Z"/>
    <path class="cls-46" d="M458.98,338.08c.51,7.51,5.82,12.04,5.91,20.58,0,.51-1.83.29-1.82.84.15,6.23-.18,9.85-4.44,15.23-2.24,2.84-10.28,6.58-6.65,11.34-7.16,6.26-8.93,5.59-17,9,4.39-7.97,10.53-14.78,14.39-23.11,2.84-6.13,4.97-13.46,7.61-19.89,1.34-2.74,1.67-5.41,1-8,.18-1.88-.79-4.88,1-6Z"/>
    <path class="cls-76" d="M311.49,124.66c.46-.52.81-.46,1.05.66,1.23,5.72-6.38,59.93-8.99,56.51-1.53-2,5.13-53.94,7.94-57.18Z"/>
    <path class="cls-59" d="M443.98,320.08c1.19,11.71,2.32,20.54-6.5,29.99.89-6.64.94-12.2-3.06-17.93-2.24-3.21-5.97-4.32-7.43-8.07,1.85-4.62,4-8.9,4.01-14,4.4,4.52,6.91,10.38,9.49,15.98l3.5-5.98Z"/>
    <path class="cls-56" d="M343.48,282.43c5.36-.01,8.12,15.83-1.78,14.46-7.28-1.01-3.14-14.45,1.78-14.46Z"/>
    <path class="cls-9" d="M204.77,266.31c2.48,3.44-.64,15.81-7.79,12.29-7.55-3.73,3.37-18.41,7.79-12.29Z"/>
    <path class="cls-71" d="M349.24,268.81c-3.15-2.89-3.66-14.39,2.19-13.77,8.83.93,5.28,20.62-2.19,13.77Z"/>
    <path class="cls-5" d="M377.74,294.83c-5.58,5.66-12.53-7.16-7.06-10.83,5.07-3.4,11.25,6.59,7.06,10.83Z"/>
    <path class="cls-63" d="M190.7,294.23c6.96-1.9,8.64,12.25-1.16,10.87-6.15-.86-2.56-9.86,1.16-10.87Z"/>
    <path class="cls-54" d="M365.49,308.43c5.25.06,8.01,10.25,2.8,11.55s-9.76-11.63-2.8-11.55Z"/>
    <path class="cls-61" d="M339.87,317.97c-.41.34-5.14.36-5.75-.02-1.47-.93-3.79-11.89,2.98-10.34,4.71,1.08,4.57,8.87,2.77,10.36Z"/>
    <path class="cls-2" d="M213.84,290.22c4.52,2.84-4.23,16.2-6.67,8.14-1.39-4.6,2.28-10.91,6.67-8.14Z"/>
    <path class="cls-40" d="M456.98,352.08c.13-2.71.74-5.29,1-8l.82.67c1.53,3.54-.98,5.28-1.82,7.33Z"/>
    <path class="cls-7" d="M179.98,124.07c2.77-3.27,4.04-7.53,6.58-10.91,3.94-5.23,14.94-16.48,20.54-19.46,17.12-9.14,39.43-4.01,44.8,16,1.11,4.14,2.52,9.97-3.32,9.37-3.6-.37-16.27-10.1-21.9-12.17-11.58-4.25-23.58-2.32-33.57,4.8-5.14,3.66-7.25,10.33-13.11,12.38Z"/>
    <path class="cls-83" d="M248.97,167.08l-6.97-12.52c-2.17-2.47-4.81-6.85-7.03-8.97-5.33-5.09-12.49-6.88-17.99-11.5,18.3.9,34.48,13.2,31.99,32.98Z"/>
    <path class="cls-75" d="M77.98,318.08l-3.71-7.79c-5.5-22.19-2.41-40.14,11.3-58.13,3.13-4.1,7.39-10.22,12.42-11.58l-10.75,19.25c-1.47,10.51-9.26,26.67-9.26,36.74v21.5Z"/>
    <path class="cls-82" d="M63.97,330.09c3.2,3.04-4.88,29.08-6.71,33.78-.49,1.26-.58,2.94-2.27,3.22.27-2.05-.62-4.16-.46-6.16.47-5.65,3.67-25.34,6.6-29.19.86-1.13,1.06-2.04,2.84-1.65Z"/>
    <path class="cls-69" d="M116.63,395.75c-.57.87-3.45,1.34-2.66,4.33-.9,0-1.46-.81-1.68-1.64-.88-3.42,2.47-14.15,2.73-18.82s.16-9.85-1.03-14.54c1.48.25,1.93,1.83,2.49,3,5.28,10.96,7.17,16.91.15,27.67Z"/>
    <path class="cls-48" d="M229.33,741.73c-6.03-6.52-6.75-31.89-6.95-41.25-.49-23.75,1.13-49.25,3.6-72.89,1.17-11.19-.29-25.46,13.66-26.14,12.27-.59,24.75,1.92,36.85,2.62,19.2,1.1,50.06.33,67.71,5.29,7.09,1.99,7.58,7.12,7.68,14.12.32,23.37-2.92,47.72-3.74,71.25-.52,15.05.8,31.04-.21,45.9-.78,11.52-3.74,14.39-15.47,15.44-23.59,2.1-68.61-2.39-91.5-8.47-4.04-1.07-8.72-2.71-11.64-5.86Z"/>
    <path class="cls-73" d="M410.98,182.09l-10.7,3.79c-17.79,8.74-23.32,44.46-6.3,56.71-11.42-.45-16.71-10.97-17.65-21.46-1.88-21.09,13.23-38.85,34.65-39.04Z"/>
    <path class="cls-37" d="M418.74,190.26c16.18-2.64,8.54,26.72-4.67,15.24-5.88-5.1-2.49-14.07,4.67-15.24Z"/>
    <path class="cls-16" d="M435.98,242.07l7.19-10.3,5.8-20.69c2.49,12.43,1.35,27.25-12.99,30.99Z"/>
    <path class="cls-32" d="M227.98,254.08c2.43-30.81,70.97-29.72,84.39-2.89,2.53,5.06,5.89,14.64,1.66,19.44-2.82,3.2-15.2,4.12-15.09-1.05.04-1.84,2.62-2.5,2.76-5.58.71-15.88-15.71-11.34-18.28-2.97-3.92,12.76,4.16,19.08,14.54,23.55-2.74,2.82-6.11,4.77-9.72,6.26-3.27,1.35-17.66,5.94-19.12,1.57-.5-8.79.48-17.55.86-26.33l2.25-.22c1.42,3.3,7.44-2.15,1.18-1.42-3.67-.95-.73-17.02.32-18.32,4.64-.5,9.39-.84,14.24-1.03l.53-1.27c4.35.28,8.85.71,13.51,1.3-11.96-9.51-33.59-9.31-48.28-7.43-25.71,5.96-5.51,6.75,5.82,4.54l1.43,1.86,4.14.89c.27,3.97-.05,8.21-1.14,12.11-.01.33.01.67,0,1-3.15,7.57-9.5,4.27-11.03-2.61l-3.97-3.39c-4.1-1.5-11.11-3.37-14.57-.03-1.13,1.09-1.28,2.89-1.43,3.03-.6,4.63-4.87,3.68-5-1Z"/>
    <path class="cls-3" d="M236.98,373.08l1.37-2.27c10.9.37,21.78.85,32.66,1.46.58,1.11.57,2.38-.03,3.81l.49,8.99c2.73-2.76,4.67-6.61,6.51-9.99.86-.81,1.85-1.72,3.08-1.86,8.16-.91,20.86,3.4,28.56,6.36,2.98-1.37,5.1-1.2,6.36.5-7.51,10.8-3.22,13.91-18.74,19.76-9.36,3.53-27.66,2.79-37.79,1.27-7.37-1.11-11.88-9.78-20.47-7.03l-2-21Z"/>
    <path class="cls-70" d="M305.97,403.08c.66.47.45,8.18,2.99,5.99.47-.4,4.83-9.46,5.52-10.99,2.15-4.73,5.71-23.59,12.97-13.98,2.74,3.63,3.48,18.48,1.5,22.2-1.59,2.98-18.47,10.57-22.44,11.81-20.7,6.45-60.07,5.88-75.55-11.51-9.2-10.34-12.62-23.53-2.48-34.5,3.58-.11,4.16,29.8,8.99,29.81.32,0,2.35-1.82,3.71-2.18,4.83-1.26,12.06,7.03,17.52,8.12,8.96,1.8,26.47,1.89,35.32-.23,4.18-1,7.83-3.43,11.94-4.55Z"/>
    <path class="cls-6" d="M270.98,376.08c.56-3.22-1.62-1.72-3.5-1.95-4.89-.6-8.4-.26-12.94-.46-5.92-.26-11.49-1.91-17.57-.59-1.55-1.75-1.45-4.52-3.59-5.91s-6.17-.87-6.41-1.1c-.65-.62.38-17.28,1.1-17.89,5.13-.38,10.26-1.76,15.11-3.39,11.42-3.84,13.48-7.09,27.28-5.7,7.01.71,12.73,4.86,18.49,8.49-8.27,7.87-13.9,17.91-17.98,28.5Z"/>
    <path class="cls-50" d="M277.98,375.08c2.3-4.22,3.88-8.5,6.58-12.92,2.47-4.02,6.18-7.25,7.54-11.96,1.38-.88,20.5,7.15,24.09,8.16,14.65,4.14,30.78,6.45,45.78,3.71,2.15,2.97-7.99,12.68-9.99,15-2.12,1.83-2.47,2.07-4.68.43-3.57,3.12-7.16,6.15-10.76,9.09-1.77-2.8-3.28-5.3-4.56-7.52-7.2-5.25-9.64-8.14-16,1l-6.48,1.58c-9.84-4.57-20.64-6.2-31.52-6.58Z"/>
    <path class="cls-32" d="M248.98,252.08c7.62,2.78,5.02,5.92,6.59,7.11,2.21,1.67,6.48,1.01,8.41-1.11-.3,7.12-1.46,14.4-1.99,21.51-.2,2.63,1.1,12.65-1.61,13.44-2.41.71-20.72-7.88-18.4-13.95,12.53-3.13,16.95-17.62,7-27.01Z"/>
    <path class="cls-32" d="M287.98,245.08c-3.83,1.81-8.84,2.03-13.01,1.99,1,5.26-3.6,8.96-1.85,14.38.78,2.42,3,.51,4.37,1.55,4.57,3.44-4.37,4.67-3.54,9.08l-3.99-5.99c.32-7.34.72-14.67,1-22-1.03.19-3.49-.32-3.93.07-.59.53-.94,11.3-3.07,12.94.13-3.33-.03-7.11.12-10.51l-3.12-2.49,2.06-2.16c7.69-.61,15.35-.07,22.98.91l1.96,2.25Z"/>
    <path class="cls-49" d="M331.98,379.08c.06.04.65-1.17,1.45-.11,1.4,1.86,1.13,4.57,3.05,6.09,2.16-2.67,8.06-8.79,11.07-9.93,1.29-.49,1.74,2.72,4.43,1.95-5,5.78-10.38,11.31-15.5,17l-4.5-15Z"/>
    <path class="cls-32" d="M227.98,254.08c.42,2.44,3.78,2.14,5,1-1.35,6.69,3.2,2.72,4.85,4.16,1.5,1.31,2.71,8.77-1.11,8.65-7.03-.22-9.19-8.02-8.74-13.82Z"/>
    <path class="cls-41" d="M191.98,171.09c-12.54,11.95-11.74,35.52-.55,48.05,1.25,1.4,3.38,1.36,3.55,2.93-8.82.38-17.02-10.46-18.02-18.47-1.33-10.67,3.67-28.74,15.02-32.51Z"/>
    <path class="cls-38" d="M223.63,167.38c10.81-.59,11.18,18.37.3,18.38-11.67,0-11.14-17.79-.3-18.38Z"/>
    <path class="cls-29" d="M234.64,605.24c2.51-.86,14.26-.25,17.91-.16,22.52.6,49.32,2.84,71.93,5,4.56.44,20.39,1.4,22.4,4.6,1.84,2.92,1.22,12.03,1.13,15.96-.39,18.25-2.46,36.73-3.07,54.9-.69,20.65.91,41.31-1.17,61.83-.67,2.82-2.58,4.23-5.34,4.66-21.9,3.41-81.28-1.68-101.68-9.2-8.69-3.2-8.87-13.37-9.75-21.25-3.06-27.55-1-81.61,4.08-108.9.38-2.06,1.59-6.75,3.57-7.43Z"/>
    <path class="cls-23" d="M287.98,245.08c-10.55-1.29-16.42-1.9-27-1-3.13.27-22.75,3.12-22.98-.49,1.09-1.73,1.78-3.22,3.6-4.38,10.03-6.38,43.17-5.07,54.17-.43,1.95.82,11.5,5.74,8.23,7.83-2.55,1.63-12.37-1.08-16.03-1.53Z"/>
    <path class="cls-80" d="M261.99,726.08c-.07,2.29.09,13.49-1.2,14.81-.94.96-7.83.47-9.28.16-5.1-1.09-1.6-10.56-1.49-14.43.31-10.35-.95-21.96-.04-32.05.1-1.13.46-4.24,1.67-4.53,11.62,1.42,31.64-1.34,34.89,13.99,3.58,16.88-8.61,26.81-24.55,22.06Z"/>
    <path class="cls-80" d="M304.16,729.26c-1.37,5.18-1.31,10.5-1.17,15.83-2.72-.5-10.87,1.4-11.87-1.64l1.31-47.41c.29-.65.53-1.48,1.03-1.97,1.74-1.72,18.23-1.22,21.58-.53,13.48,2.77,18.56,20.74,9.34,30.46-5.73,6.04-13.1,3.71-20.22,5.27Z"/>
    <path class="cls-47" d="M278.71,651.32c5.03-1.05,10.25.5,14.62,2.92,7.69,4.27,23.7,24.85,8.73,28.41-11.39,2.71-12.9-4.73-18.47-4.53-4.23.15-9.09,4.44-15.09,4.03-4.6-.32-9.16-4.79-9.03-9.58s14.06-20.17,19.24-21.25Z"/>
    <path class="cls-47" d="M301.52,616.53c2.23.2,6.37,4.4,7.01,6.5,2.8,9.13-4.64,27.12-15.84,23.84-7.93-2.32-6.41-31.71,8.83-30.34Z"/>
    <path class="cls-17" d="M271.72,616.23c15.48-2.74,14.04,33.93.53,28.1-9.9-4.27-11.58-26.14-.53-28.1Z"/>
    <path class="cls-45" d="M251.33,656.74c-9.58-9.12.89-34.36,11.66-19.16,8.48,11.97-1.64,28.69-11.66,19.16Z"/>
    <path class="cls-17" d="M314.74,637.25c13.83-2.29,11.27,26.69-3.17,24.81-12.51-1.63-7.22-23.09,3.17-24.81Z"/>
    <path class="cls-20" d="M263.09,703.19c12.8-2.88,16.24,11.73,1.88,12.47-4.64.24-1.85-8.81-1.88-12.47Z"/>
    <path class="cls-18" d="M304.99,704.08c3.21,1.66,7.65.17,9.88,3.61,3.32,5.11-.88,9.47-6.39,9.48-8.35.02-2.57-7.8-3.49-13.09Z"/>
  </g>
</svg>