<?xml version="1.0" encoding="UTF-8"?>
<svg id="Layer_2" xmlns="http://www.w3.org/2000/svg" version="1.1" viewBox="0 0 2521 1081.6">
  <!-- Generator: Adobe Illustrator 29.5.0, SVG Export Plug-In . SVG Version: 2.1.0 Build 137)  -->
  <defs>
    <style>
      .st0 {
        fill: #d2ae81;
      }

      .st1 {
        fill: #be5a14;
      }

      .st2 {
        fill: #cc5323;
      }

      .st3 {
        fill: #8a3707;
      }

      .st4 {
        fill: #ba5915;
      }

      .st5 {
        fill: #a73410;
      }

      .st6 {
        fill: #6a2705;
      }

      .st7 {
        fill: #b04f11;
      }

      .st8 {
        fill: #bc5b16;
      }

      .st9 {
        fill: #551f04;
      }

      .st10 {
        fill: #f6dcb2;
      }

      .st11 {
        fill: #8b3908;
      }

      .st12 {
        fill: #f5dab0;
      }

      .st13 {
        fill: #9e3d08;
      }

      .st14 {
        fill: #863507;
      }

      .st15 {
        fill: #f6e8c0;
      }

      .st16 {
        fill: #191105;
      }

      .st17 {
        fill: #edba61;
      }

      .st18 {
        fill: #181106;
      }

      .st19 {
        fill: #edba62;
      }

      .st20 {
        fill: #cfab80;
      }

      .st21 {
        fill: #7c1f06;
      }

      .st22 {
        fill: #ffd28a;
      }

      .st23 {
        fill: #594436;
      }

      .st24 {
        fill: #d17119;
      }

      .st25 {
        fill: #d4af82;
      }

      .st26 {
        fill: #dfbb89;
      }

      .st27 {
        fill: #ccebf2;
      }

      .st28 {
        fill: #873607;
      }

      .st29 {
        fill: #ebaf69;
      }

      .st30 {
        fill: #ecb45d;
      }

      .st31 {
        fill: #7b1f06;
      }

      .st32 {
        fill: #d3b082;
      }

      .st33 {
        fill: #2e1f13;
      }

      .st34 {
        fill: #1a1104;
      }

      .st35 {
        fill: #99280c;
      }

      .st36 {
        fill: #f5dbb0;
      }

      .st37 {
        fill: #893707;
      }

      .st38 {
        fill: #f4ddb4;
      }

      .st39 {
        fill: #f4ddb5;
      }

      .st40 {
        fill: #853507;
      }

      .st41 {
        fill: #8d3908;
      }

      .st42 {
        fill: #f2dcb1;
      }

      .st43 {
        fill: #171106;
      }

      .st44 {
        fill: #eab45e;
      }

      .st45 {
        fill: #d5b284;
      }

      .st46 {
        fill: #1a1105;
      }

      .st47 {
        fill: #ad4c0f;
      }

      .st48 {
        fill: #181105;
      }

      .st49 {
        fill: #120902;
      }

      .st50 {
        fill: #cb5220;
      }

      .st51 {
        fill: #a83410;
      }

      .st52 {
        fill: #d5b283;
      }

      .st53 {
        fill: #a94a0e;
      }

      .st54 {
        fill: #843607;
      }

      .st55 {
        fill: #bc5914;
      }

      .st56 {
        fill: #722b05;
      }

      .st57 {
        fill: #ba5815;
      }

      .st58 {
        fill: #f4deb5;
      }

      .st59 {
        fill: #a02c0e;
      }

      .st60 {
        fill: #d5b184;
      }

      .st61 {
        fill: #b04e11;
      }

      .st62 {
        fill: #bd5914;
      }

      .st63 {
        fill: #a93e0e;
      }

      .st64 {
        fill: #bf5d16;
      }

      .st65 {
        fill: #f6ddb4;
      }

      .st66 {
        fill: #f2cd93;
      }

      .st67 {
        fill: #af4e10;
      }

      .st68 {
        fill: #9f2c0e;
      }

      .st69 {
        fill: #ae4d10;
      }

      .st70 {
        fill: #aa4b0e;
      }

      .st71 {
        fill: #f3dbb2;
      }

      .st72 {
        fill: #b85512;
      }

      .st73 {
        fill: #f6dcb1;
      }

      .st74 {
        fill: #f1dbb3;
      }

      .st75 {
        fill: #8a3808;
      }

      .st76 {
        fill: #ac4c0f;
      }

      .st77 {
        fill: #b15011;
      }

      .st78 {
        fill: #d2ae82;
      }

      .st79 {
        fill: #d6b184;
      }

      .st80 {
        fill: #d5b082;
      }

      .st81 {
        fill: #191005;
      }

      .st82 {
        fill: #f4dab0;
      }

      .st83 {
        fill: #ac4c0e;
      }

      .st84 {
        fill: #4d1c04;
      }

      .st85 {
        fill: #d3af82;
      }
    </style>
  </defs>
  <rect class="st27" width="2221" height="1080"/>
  <polyline class="st22" points="1152.3 1081.6 1792.2 1.5 2521 1.5 2521 1081.6 1152.3 1081.6"/>
  <g id="Layer_1-2">
    <path class="st34" d="M1482.4,592.1c-4.9,6.3-23.4,16-31.5,16h-18.5c-.3-1.8,0-2.2,1-3.5,1.2-1.4,13.2-10,10.9-12.5-7.5,5.8-20.5,13.3-30.2,12.7-4.6-.3-10.3-2.6-14.4-2.7-5.6,0-13,3.2-18.4-1.5-2.4-2.1,3.1-4.9,4-6.2,1.2-1.8,6.3-12,5.1-13.2-25.6-2.8-42.5-28.2-38-53-1.7,1-3.1,4.9-3.7,6.8-1.1,3.5-2,7.6-2.3,11.2-2.3,2.5-7.1-8.8-7.5-10-4.4-13.8-2-26.6,2.5-40-3.8,1.5-26-3.2-26-6.5,4.1-4,10-6.8,13.4-11.6,9.1-12.8-2-32.7-2.5-47.4-.4-11.8,3.3-25.1,6-36.5-3.5.8-9.3,14.9-10.5,15-4.3-8.9-2.6-21.9-.4-31.4,12.1-52.2,57.6-71.4,89.8-108.1,12.3-14.1,21.5-31,34-45l-13,4.5c6.4-16,21.5-30,36.6-37.9,5.3-2.8,11.4-4.1,16.3-7.6,0-.5-6.6-5.9-7.6-6.4-1.9-.9-9.4-.8-7.3-3.1.7-.8,8.9-3.6,10.6-3.9,15.5-2.7,35.5,2.9,46.9,13.8,25.6-16.6,58.8-23.3,89-25.8,39.7-3.3,80.1,1,118.5,11.5,23.1,6.3,45.3,15.7,65.5,28.5,17.9-10.8,44.2-17.6,64.5-10.4,1.3.5,10,4.2,9,5.5l-14,6c28.7,4.3,53.7,24.2,57,54l-3.5-2c-.4,2.8,3.5,6.7,5.3,9.7,10.2,17.2,17.3,33,29.8,49.2,21.1,27.6,51.3,49.7,54.4,87.6,2.2,27.5-10.1,56.9,11,80,2.4,2.7,5.3,4.6,8,7-8.6,3.4-17.5,5.3-26,.5,11.1,26.2,10.4,57.9-10.1,79.4-.7.7-11,10.2-10.9,7.1,1-5.5,3.2-11.6,3.9-17.1.2-1.2,1-6.2-.9-6.4-1.3,10.9-10.2,19.5-18,26.5-10.1,9.1-34.5,21.6-24.9,38.8,1.5,2.8,8.8,6.5,5.6,9.4-12.9,5.1-26,5.3-37.7-2.8,0,5.8,1.5,11.5.9,17.4-.3,2.7-4.5,14.6-6.4,15.6s-1.9-3.6-3-5c-2.1-2.8-12.2-3.7-16-4-1.2,0-5.5-.8-5.5,1,5.6,2.1,14.1,10,13,16.4-.3,1.5-2,2.7-1.8,3.9.2,1.6,14.2,26.1,15.8,28.2,2.9,3.7,8.6,6.6,12,10,28.2,28.7,57.4,73,71.2,110.8,6.6,18.2,10.1,37.4,16.4,55.6,10.8,31.3,27.3,59.1,36,92,10.1,38.2,15.5,78.5,13.5,118h-9l-2.1-1.7c5.2-65.8-13.6-131.3-42.5-190.5-7.7-19.2-13-38.7-18.3-58.6.7-3-17.1-41.9-16.9-39.8,1.6,20.2,2.6,36.4,0,56.9-1.1,8.9-6.3,41.2-11.1,46.1-.6.6-1.2,1.1-1.9,1.5.3,3.6-1,7.4-2.3,10.8-6.2,16.6-16.5,33.2-26,48.3,7.7-5.3,15.8-9.9,24.2-13.9l2.1.9c11.6-8,28-5.7,40.8-1.3,3.2,1.1,11.4,5.1,9.2,8.4-.7,1-22.5-.2-24-.9,0-1.9-.7-1.8-2.1-1.2-2.3,2.9-9.4,3.4-12,1l-1.2,1.6c-51.8,16.4-76.5,76.6-72.3,127.8l-1.5,4.6h-10l-1.5-1.5c-1.5-11-1.2-22.1.9-33.4l-2.5,4.4-3.8,29.6-2.1.9h-9c-.5-.8-.9-1.6-1.2-2.4-1.8-5.1,4.6-42.6,7.5-48.5.4-.8,1-1.4,1.7-2.1l-1.3-3.8c2.6-11.4,4.4-23,5.3-34.6.3-2.5,1.9-2.9,4.2-2.4,1.2.3,4.9,20.8,4.3,23.3-1.5,8-1,10.8,1.5,8.5l-.6-1.7c3.4-15.4,3.6-31.2.6-47.3-2.5-1.1-3.9-7-2-9-.7-2-1.3-3.8,1.3-3.5,3,.3,10.7,12,11.8,15.4,6.1,5.4-4.3-18.5-4-17.5-4.7-24.3-5.8-49.1-3.4-74.2.8-.7,1.7-1.2,2.7-1.3,4.3-.1,7.8,21.2,7.6,25.8l2.1-.8c2.5-21.2,4.3-42.5,5.6-63.8,3.1-8.6,9.4,14.1,9.1,16.2,3.8-13.2,6.5-26.5,8.1-39.9l2.1-2.5-1.9-8.9c-.9-40-11.8-79.7-29.8-115.3l-.3-4.8-2.6-.7-4.4-7.9c-14.7,17.3-31.5,34.9-51,46.6l-.6,2.3c-22.9,20.2-44.8,41.4-65.7,63.7-42.7,47.3-47.2,115.9-23.7,173.4-.3,0-.6-.1-.7-.3-.6-1.8-1.1-4.2-1.3-6.1-.4-3.2-.8-12,2-13.1.7-2.1,1.2-2.3,3-1.2,2.7,1.5,6.9,30.5,7.5,35.7,4,31.5,3.5,64,.1,96.1-.1,1.1-.5,2.2-1,3.3s-1,2.2-1.7,3.2h-9l-1.9-1.1,2.7-24c-40.4,2.1-82.8-8.1-116.9-29.5l.9,1.8c-2,10.4-1.3,21.2.3,31.7.7-2.8,4.1-15.7,6.2-15.8,2-.2,3.7,1.2,3.4,3.2-.9,10.3-.3,20.6,1.9,30.9l-1.6,2.8h-15l-2.6-2.4c-7-19.7-8.2-38.2-6.3-58.2l-1-.5-11.9,60.3-2.2.8h-9l-1.8-1.3c4.3-23.3,8.3-46.3,12.1-69-24.8-17.7-45.7-40.8-61.8-66.7-30.3-48.8-35.8-98.4-40.7-154.1-2.6-16.5-7.5-33-13.7-48.3-1.1,4-2.8,6.1-5.2,6.3,1.3,5.7-4.5,11.8-8.6,15.6.7,1.9,11.1-5.8,11.4-7.4l2.2-.2c1.3-7.4,9.5,2.3,2,4l-2,7.2c-6.3,10.8-10.9,22.2-13.9,34.4l-2.1.9c.8,0,1.9.3,2,.9,1.1,4.7-.4,13.1-2,17.6.8-7,5.4-12.8,10.8-17.2,10-8.2,9.5-2.1,5.9,8.6-3.5,15.8-5.7,36,.9,50.8l1.5-1.2c-.9,0-.9-.5,0-1l-.6-12.4c4.5-11,7.3,5.2,7.8,14.4,2.2,13.3,4.4,26.4,6.7,39.1v3.8c3.1.5,4.2,6.6,1.6,7.7l.4,2.3c1.6,4.9,3,11,3,16.2.2,46.9-2.4,92.4-7.1,139.1-.2,1.6-.6,3.2-1.1,4.8s-1.1,3.2-1.8,4.8h-8c3.4-48.6,8.8-97.7,7-146.5-.4-11.8-1.1-29.6-5.6-40.5-1.6-3.8-5.4-8.5-7.4-12.6-7.2-15.2-11.2-30.5-11.1-47.4-2.8,1.8-2.6,6.7-3,9.5-.9,5-4.9-4.7-5.5-6.5-3.9-11.7-4.1-31.1-1.1-43,1.7-6.8,5.9-14.4,8.6-21-4.3,1.6-18.1-2.5-18.1-7.5,0-1.6,10.8-8.8,12.7-10.8,5.3-5.6,12.9-19.8,15.4-27.1,1.4-4.1-.9-8.8-1.1-13-.5-10.4,2.3-19.8,7.2-28.8.9-1.7,4.5-5.6,4.6-6.3s-3.6-10.8-3.8-13.9c-.5-6,.5-11.7,2-17.5-5.2,2.7-32-4.1-30.9-10.4.2-1.3,16.3-12.6,18.9-15.1,9.4-9,16.7-20.8,19-33.5-2.1-1.5-4.1-.1-6,4h-1s0,0,0,0Z"/>
    <path class="st10" d="M1832.4,728.1c4.8,4,8.3,9.5,10.4,16.5,7.9,23.3,16.2,46.4,24.8,69.4,10.7,16.6-6.3,8.9-14.5,4.7l-11.2-7.4c9.2,20.8,17.1,40.8,16.6,64l2.8,22.3c0,3-1.3,3.2-3.8,3.1l-11.3-11.7c8.6,27,15,54.9,16.3,83.3,1.8-8,2.5-16.3,2.1-24.9.3-3.2,1.6-3.1,4.2-2.4.8.2,7.6,13.4,5.7,15,1.3,2.9,2.1,5.8,2,9,1.7,13,2.1,26.2,1.4,39.4l-2.5,9,1.1.6c-.9,2.4-.8,5.9-4,7,1.1-6.1,1.7-14.3.9-20.4-.4-2.8-2-5.5-2.7-8.3s.7-7.8-2.2-9.3c-.2,13.6-3.7,26.7-6,40l-1.6,1.3c-5.6,15.5-10.1,31.6-12.9,48.1l-2.6,3.6h-95c-1-1-1.6-2.2-1.9-3.5,8.7-49.9,2.8-100.2-10.6-147.9-.9-2.8-.4-4.5,1.5-5.1-.8,0-2-.3-2-.9-.4-5-.7-25.8.7-29.5.1-.3.6-.5,1.3-.7l-.9-.6c-1.4,9.6-9.3,23.6-10.7,4.7-2.8-38.3,16-80.2,41.6-108l60.7-61.2,2.3.5h0s0,0,0,0Z"/>
    <path class="st73" d="M1969.4,945.1c2.8-1.1,4.4-.3,2.5,2.5-6.3,4.3-11.8,9.8-15.1,16.7,18-1.8,32.1,6.5,43,20.4,13.9,17.8,23.7,38.4,27.5,61,1.8,10.7,4,24.6,0,34.4h-123l-1.6-3.3c.5-19.1,1.1-37.4,8.8-55.2l-7.7,12.4c-.9.3-2.9.8-3.2.5-.5-.5-.8-1.3-1-2.1-1-4.4,5.7-24.6,7.8-30,9.7-24.8,26-44.8,50-56.2,4.4-.9,7.6-.8,12-1h0,0Z"/>
    <path class="st67" d="M1947.4,894.1c10.4-29.4,15.6-68.4,11.9-99.4-.7-5.5-2-11.9-3.9-17.1l2-.5c5.9,14,13.6,27.4,18.8,41.8,6.3,17.8,9.8,36.8,16.2,54.8,7.4,20.9,18.1,40.4,25.8,61.2,15.1,41,24.2,87.2,22.9,130.9-.1,4.7-1.2,9.5-.6,14.3h-13c.8-23.2-2.3-45.4-11.8-66.7-2-4.4-4.9-8-6.9-11.3-6.8-11.2-14.3-24.4-26.3-30.6-8.6-4.4-19.6-7.3-29-4.5,3.1-8.5,9.4-15.6,16.8-20.7,2.6-1.8.7-1.2-.8-1.3.1,0,.6-.8,1.5-.9l24.5,1.8-10-5.5c-12.8-5.6-26.9-4-40-.5-2.3,1.6-2.7.9-2-1.8,5.1-4.6,9.1-10.5,11.7-16.9-5.3,6.7-17.5,18.7-15,2.5,3-9.9,5.5-19.8,7.3-29.8h0Z"/>
    <path class="st85" d="M1583.4,1080.1h-24l-2-.7v-31.9c-.9,3.6-5.1,10.6-7,4.5-1.1-41.4-21.7-78.9-44.2-112.2-6.4-11.2-7.3-14.8-9.3-27.3,0-.1.6,2.4-.4,2.5l-.8-.7c.1-3.3-.6-6.2-1.2-9.3-1.5-7.5-2.3-14.8-2.7-21.9-4.8-22.6-7.3-45.6-7.3-69l-6.6-40c-.9-5.4-.6-10.1,1.6-15.1,0-1.1,1.7-3.2,1-5l-3,1c-2.9.3-5.9-5.3-5-8,1.9-3.6,3.2-8.2,6-11,6.1,17.2,12.3,34.5,14.9,52.6,4.9,34.1,4.6,64,15.1,97.9,15.1,49,45.7,91.8,86.8,122.2v4.7c0,0-11.8,66.6-11.8,66.6h0Z"/>
    <path class="st12" d="M1496.4,915.1c0-1.1-.7-3.3,1-3,2.5,19.3,16.8,35,26.2,51.3,15.8,27.7,28.8,58.2,28.8,90.7l7-17v43h-70c4.7-49.1,9.2-98,8.1-147.5-.1-5.7-1.3-11.5-1.1-17.5h0Z"/>
    <path class="st78" d="M1631.4,1080.1c-1.6-11.3-4.1-23.7-2-35-3.1-.6-1.5.9-2.1,2.4-2.9,7.3-3.8,10.2-4.9,18.1-.3,1.8.5,1.7-2,1.5-1.9-14.3-4.2-28.8-.5-43,36.4,20.3,77.5,31.6,119.5,29l-3,27h-105Z"/>
    <path class="st80" d="M1829.4,723.1c3.1-.7,5.2,2.6,3,5l-61.5,62c-28.3,30.7-44.7,73-40.5,115,1.5-.2,1.9-1.9,2.5-3,1.2-2.1,4.8-11.4,5.5-12,0,0,2.1-.4,2,.5,0,.9-1,1.7-1,2v31c0,9.5,7.9,32.3,9.9,44.1,3.8,23.4,6.4,51.2,5.1,74.9-.7,12.5-3.9,24.9-4,37.5h-5c2.4-24.5,4.2-48.9,3-73.5-.8-17-3.6-45.5-8.7-61.3-.6-1.7.4-2.6-2.3-2.2v19.5c0,.4,3.6,4-.5,1.5-19.4-41.2-20.9-90.9-4.3-133.3,16.7-42.5,61.6-77.7,94.8-107.7.7-.4,1.3-.7,2,0h0Z"/>
    <path class="st25" d="M1957.4,946.1l1.5,2c-33.8,14.1-53,51-57.5,86l8.2-13.3,6.8-8.2c-3,11.4-8.2,22.3-9.9,34.1-1.6,10.8-.5,22.5-2.1,33.4h-22c-2.8-22.9.2-46.5,8.5-68,11.2-29,34.3-59.8,66.5-66h0Z"/>
    <path class="st45" d="M1862.4,1027.1c-3.1,17.6-7.2,35.1-8,53h-9c1.1-7.2,2.2-14.3,4.1-21.4,2.2-8.5,6.3-22.4,9.8-30.2.8-1.8.9-3.2,3.1-1.4h0Z"/>
    <path class="st24" d="M1489.4,588.1c-5.2-.7-3.5,6.5-7,4,2.8-3.7,6-10.4,7-15,1.8.3,1.1,5.2,1,6.6-.1,2-.8,3-1,4.4h0Z"/>
    <path class="st7" d="M1758.4,186.1c14.6,5.6,29.7,14.2,42.7,22.8,14.4-9.2,31.1-15.1,48.3-15.8l-13.3,6.1-9.7,7.8c18.3-1.4,37-.2,54,7.5,9.6,4.4,17.6,12,22,21.5l-16.7-8.8c-4.5-1.6-9.4-3.1-14.3-2.7,4.4,4.2,11,5.5,15.9,9.1,18.8,13.9,32.4,50,45.8,70.2,19.2,28.8,57.4,57.1,61.2,92.8,2.9,27.4-8.8,57.5,10,81.5-10.3-4.1-17.8-12.8-23.2-22.3-2.8-5-4.5-11-7.3-15.7-.8-1.3.2-2.5-2.5-2,4.2,31.1,25.4,54.8,23,87.5-.4,5.3-2.5,14.4-4.9,19.1-.3.7-.6,3.4-2.1,1.4-.3-.4-1.2-8.6-1.7-10.8-2.2-8.8-7.2-25.7-12.1-32.9-.5-.7-2-3.5-3.2-2.3-.6.6,3.6,12.6,3.9,15.6,1.7,16.6-1.2,31.4-11.9,44.4-4.5.2-2.2-3.4,0-5.7,1.6-8.8,1.6-18-.5-26.8-.8,10.8-4.8,21.4-11.9,29.8-3.3,3.9-12.5,13.9-11.3,4.4,8.5-19.2,8.7-41.9-4.9-58.8-11.9-12.1-19.9-24.8-19.3-42.5-4.6,9.3-3.8,20.1-2,30.1,6.2,25.1,12.5,55.9-9.7,74.8l-2.5-1.3c1-16-1.9-31.7-7-46.8,1.6,20.7-1.8,38.3-8.7,57.6-1.4,3.8-9.2,19.6-11.8,9.8,5.9-20.7,6.5-40.9,1.8-60.6,1.2,2.2,2.8,11.4,2,13.1-.3.7-1.2,1.1-2,1.4,2.3,2,2.2,5.2-.2,9.8-8.9,15.6-17.1,31.3-24.5,47.2-.5.3-1,.6-1.5.5-3.9-.5-3.7-16.7-3-20.3l7.9-24.6c2.3-9.8,1.8-20.3-.5-30.2-8.1-24-13.5-46.5-9.6-72-3.7,11.1-6,22.7-4.8,34.3l3.2,31.1c2,13.2-6.6,41.8-18.6,48.1-4.2,2.2-5.2,2-4.3-2.9,7.8-18,12.7-38,5.8-57-11.7-20.2-8.7-43.9,3.3-63.4,17.3-29.4,37.9-65,29.9-100.1.2,35.7-13.1,64.9-35.1,92.4-10.1,14.6-16.1,31.7-17.1,49.2l2.4-.2c2.1,1.2,7.8,14.2,4.4,15.5.8,6.2-.8,18.8-2.3,25.2-3.2,14-12.5,29.8-26.7,34.8,9.8-11.2,14.8-25.3,16-40,3.2,2.4,4.3.9,3.4-4.6-1.5-5.7-2.1-11.3-1.9-16.9-.6,2.1-1.8,3-3.5,2.5-3.7-29-3.3-45.1,9.1-72.4,7.7-17,20.3-32.4,25.4-50.6,7.7-28,3-92-15.9-115.1-.8-1,0-2.5-2.6-1.9,5.9,14.4,7.9,29.8,10,45,2.6,27.5,2.2,55.6-10.5,80.9-.7,5.9-1.8,11.6-3.5,17.1-16.1,28.8-25.7,50.6-23,85,.1,3.8-.8,6.6-3.2,1.8-1-10.5-1.3-21-.4-31.5l-1.1,2.6c.2,9-2.6,14.7-8.2,17l-2.6-1.5c-3.8-11-13-17.9-23.4-22.2-24.7-8.1-40.5-15.1-56.9-36.4-28.6-37.2-41.5-76.3-36.7-124.1,2.2-22.3,8.4-45.2,22.6-61.8l-.5-1.9c8.5-10.6,20-22.1,31.4-29.7,2.3-1.5,6.9-4.1,9.1-3.4,1-.7,1.6-1.4,1.1-2.7,12.9-5,27-7.5,40.9-5.3h0Z"/>
    <path class="st65" d="M1758.4,186.1c-7.5,1.8-15.5.9-23.2,2.3-4.6.8-14.7,3.8-18.8,5.7-1.1-.7-1-.8.2-1.2-18.9,6.6-30.8,16.8-40.5,33.9,1.1.5,1.2,1.3.3,2.2-3.4,8.9-9.8,17.6-13,26.5-10.6,30.3-11.2,68.6-2.6,99.5,6.6,23.5,30.6,64.6,50.6,78.4,21.4,14.8,53.4,13,61.9,41.6l2.4,1.3c1.3,2.5,1.5,16.9-1.4,18.7,0,2.8-.3,4.8-1,6,.7,2.6.4,5.2-1,8,1,6.5-3.3,15.7-6.4,22-3.7,7.5-9.2,15.9-15.6,21l-.2,2.3c-3.5,3.5-24.3,20.3-28,19.8-2-.2-2.4-1.7-1.7-3.5,1,0,10.8-16.8,9.2-15.7-22.6,18.2-49.7,36.1-76.1,48.7-46.1,21.8-103.1,18.7-133.1-27-5.8-8.8-15.2-30.7-6.8-39.9,2.2-2.5,7.5-6.3,9.8-2.8l2.4,1.8c2.7,20.3,10.1,34,29.4,43,75.8,35.5,150-35.2,184.5-96.6l2.7-1.3c4.8.9,9.9,7,11.7,12,1.9,13.7,3.5,1.5,4.1-4.6-.3-3.9-.1-7.6,1.2-11.4-.9-.1-2-.6-2.1-1.4-1.5-11.6-2.6-16.1-15.6-19.8-5.2-1.5-10.1-1.5-14.5,1.9,2.3,0,3.7.9,4.2,2.4.7.8,1.3,1.8,1.2,2.9,0,3.6-8,14.8-10.7,18-26,31.2-63.9,27.8-98.6,14.4-5.9-2.2-25.1-12.8-28.6-17.8-1.1-1.5-2.8-6.4-2.5-7.7.5-2.8,32.4-24.4,37.2-27.6v-1.3s.3-2.7.3-2.7c24.8-24.2-1.7-49.3-28.7-55-60-12.6-91.4,37.2-34.3,70.2l.7,2.4c-.2,1.2.8,2.5,3,3.8,5.7,17.2-1.9,25-19,29-21.1,5-45.3,3-60-13.9l-2.8-1c-4.6-5.6-11-35-5.3-41.4,2.8-1,4.2-2.6,4.2-4.6l.7-3.2c5.4-5,11.2-9.6,17.3-13.8,2.3-3.8,5.8-7,10.5-9.6,17.8-16.4,32.5-28.8,57.3-33,21.5-3.6,43.8-.2,64.3,6.9-21.8-14-49-14-73.3-7.3l-3.8-1-.6-2.2c21.2-16.6,29.7-42,36.5-67.7,5.8-22.1,9.8-45,10.2-67.8l1.9-2.3c7.7-20.2-1.6-44.8-22.1-53.6v-2.4c54.7-9.2,120-4.9,172.1,15h0Z"/>
    <path class="st69" d="M1578.4,172.1c13.2,5.6,22,17.8,27.2,31.4,2.6,6.8,6.2,17.4,2.8,23.6,1,31.7-13.8,102.8-34.5,127l-13.5,13c0,3.2-10.1,5.8-11,2,17.6-25.8,11.7-67-26.9-65-3.9.2-11.9,1.5-7.9,5.4-8.9,5.9-16.2,11.1-21.9,20.7-16.2,27.2-4.8,57.2,28.9,55.2,3.7-1.6,5.6-.7,5.7,2.6l-23,21.6,1.1,1.4c-5.1,6.6-11.8,11.6-18,17l-1.4,1.7c-8.7,1.5-15.4,11.4-15.5,20l-2.1,1.2-.5,7.4h-1.4c0,13.9,2.7,27.3,7.2,40.5.1,3.1,0,4.8-3,3.7-10.6-3.6-27.8-37.8-27.1-50.1l-.9,23.2c2.4,5.2,1.9,7.6-1.3,7.2-20.2-50-.5-65,19.5-106,7.9-16.1,5.3-21,6.4-37.6,2.5-36.4,24.2-71.8,37.5-105.5,3.4-8.7,7.2-17.4,9.5-26.5l-2.4-.5c-4.7,9.2-10.9,17.7-15.5,27-25.9,28.2-48.2,61.7-57.1,99.2-3.5,11.2-9.7,21.2-17.5,30-11.4,11.9-22.7,23.9-33.8,36.1-.9.6-1.7,1-2.1.7-6-3.7,5.1-22.1,9-25.9,15.8-16.4,26.6-36.4,33.7-58-14.5,16.4-29.6,32.2-45.1,47.4-8.6,9.3-16.2,19.8-19.9,32,1.4-4.3,17.2-19.3,15.8-9.6-8.6,18.9-12.8,38.2-15.9,58.7-1.3,10.1-12.8,37.7-23.8,40.5-1.2.3-3.2-.5-4.2-1.1,1.4-4.9,4.7-9.2,6.5-14,3.8-10.3,6.9-27.5,7.6-38.4,0-1.6.8-6.9-1-7.5l-11,24c-4.4-37.1,6.9-76.4,33-103.5-.9-1.6-2.2.4-3.1.9-15.9,9.9-26.2,24.2-37.9,38.6,1.2-5.1,2.7-11.1,4.5-16,14.8-39.7,55.9-60.7,83-91,19-21.2,31.2-49.8,55.5-65.5-6.7-1.8-13.1,2.2-19.5,3.5-.6-1.2,2.2-3.3,3-4,12-10.4,31.2-21.8,47.5-18,.6-7.3-7.9-9.4-11-15,6,2.2,11.6,2.3,17.7,4.8s12,7.5,17.8,10.9c14.8-10.2,32.8-17.9,50.5-21.7h0Z"/>
    <path class="st68" d="M1608.4,745.1c-4.1-1.2-.7-4.9,3-3.3,11.6-1.6,23.3-3.1,35-4.5,20.2,3.3,37.9.3,55.6-9.7l28.8-5.7c10-3.8,19.4-9.3,28.1-16.4,16.6-4,32.6-10.1,47.8-18.3,6.1,3.7,13,6.3,20.6,6.3,3.3.9,13.8,6.4,10,9.6-69.4,63.4-139.7,108.2-123,217-3,15.7-1.4,38,.2,55.8-5.6,16.1-45.6,11.2-58.7,9.3-33.1-4.7-58.5-15.2-85.5-36.6-3.1-2.4-16.3-13-14.7-17,.2-.6,1.4-.7,2.8-.8,20,1.7,39.9,3.8,59.7,6.3,15.7,1.3,31.5.3,45.4-7.6,1.7-1,7-4.8,3.8-5.5,8.9-7.8,10.7-15.1,12-26.5,2-17.2.3-34.7,1-52,.7-17.5,2.8-35.4,3.1-52.9.3-18.8,4.3-36.8-18-42.1-15.9-3.8-40.1-4-57.1-5.5h0Z"/>
    <path class="st40" d="M1496.4,234.1c-12.8,25.4-36,74.1-38,101.5-.6,8.4,1.4,21-.5,28.5-1.8,7-14.6,24.5-18.7,32.3-18.6,35-20.3,63.6-2,99.4,9.2,17.9,25.2,30.4,36.6,46.4,2.1,2.9,10.9,17,11.4,19.7,2.9,15-20.5,37.8-35.8,37.2,8.6-15.7,12.2-33.6,8.8-51.2l-3.8-9.8v19.5c0,3.3-3.4,11.6-5.2,14.8-7.9,14.3-23.4,23.9-39.8,24.7,2.1-3.2,9-10.9,9-14.5v-15.5c-2.8-.5-1.6.7-2.2,2.2-4.8,12-8.1,21.1-21.8,25.8,11.4-17-3.8-31.2-8-47,3.1-9.9,4.7-21.1,5.7-31.9l-6.3,8.4-2.4-.5c-.2.1-1.3-.3-1.8.2-.9,1-3,10.3-3.2,12.3-1.3,14.6,5.2,24.8,11,37.5-36.7-8.8-32.6-49.6-20-77-9,7.8-18,18.3-23,29-1.5.2-1.6-3.4-1.7-4.4-.6-19.2,13.8-35.2,19.7-52.6-8.1,8.1-15.9,18.6-29,16.5-1.8-1.5,0-1.2,0-1.5,1.6-1.7,2.8,1,4,.5,3.1-1.4,12.3-14.3,14.2-17.9,9.6-18,9.3-36.6,14.3-55.7,2.3-8.6,6.9-17.3,9.5-25.5.2-.5.3-1.6-.5-1.5-4.7,4-9,8.4-12.3,13.6-1.6,2.6-2.5,7.3-5.2,9.3,2.5-31.3,29.2-50.6,49-71.5,7.8-8.2,14.9-17.1,22.5-25.5,1.2,1.4.3,4.2-.2,5.8-3.3,12-12.8,31.8-19.9,42.1-8.7,12.8-24.6,24.3-24.9,41.1,13.6-17.9,36.8-35,46.9-55.1,6.9-13.8,9.2-31.5,16.4-45.6,12.1-24,27.6-45.6,45.2-65.8l2,1.4h0s0,0,0,0Z"/>
    <path class="st85" d="M1475.4,454.1l2.4,2.7c2.9,21.1,17.5,39.9,38.6,44.4,4.3,3.1,8.8,25.2,8.6,30.5l-1.6,2.4c-16.8,2.6-10.9,21.6-6.1,32.5,23.5,52.5,90.3,58.9,136.7,34.6,20.3-10.6,50.1-28.1,67.8-42.2,3.3-2.6,8.2-6.1,9.5-10,1.6-.3,1,1.4,1,2.5,0,8-7.1,14.9-11,21.5l17.9-11.6c4.1-3.2,6.1-7.3,11.1-9.4,4.7-3.4,9.5-6.6,14.6-9.6l2.4.6c-.7-4.3,9.2-12.5,8.9-5.1-.2,4.6-7.6,21-11.9,24.1-1.9,2.8-6.5,7.8-9,10.5-5,5.5-10.9,10.1-16,15.5,10.6-2.5,20.1-9.2,28.5-16,1.8-1.5,5.2-5.9,6.5-6.5,3.7-1.5,11.7-1.1,16-3.5-6,14.8-7.1,31.3-2,46.5,4.3,13,10.3,19.1,19.2,28.8.9,1,.9,2.2,2.8,1.7,1.4-6.4.4-13.1,1.1-19.4,0-1,.4-3.8,1.9-3.6,4.1,10.7,15.7,20.2,27,23-1.6,11.8-10.3,17.2-19.5,23-1.5-3,5.8-20.6,1-21-2.5-.2-4.4,6.4-5.7,8.3-5.6,8.4-10.8,14.5-18.8,20.7-3.1,1.9-4.1-.7-3.2-3.8,5.8-10.7,2.5-24.3-7-31.8-9.4-6.3-17.7-13.7-24.7-22.2,2.9,9.9.5,40.7-9.1,45.2-1.8.8-2.6,1-3.3-1.2-2.3-14.2-8.8-28-18.7-38.2-2.6,7.9-5.3,14.9-9.9,21.9-2.1,3.1-20.7,23.9-22.3,24.1-1.9.3-3.3-.8-3.4-2.7,2.2-6.5,2.7-13.3,1.7-20.4-1.8,8.7-26.7,26.1-33.7,24.7-2.1-.4-2.4-1.6-2.3-3.7,4.5-5.8,7.6-12,9.3-18.8-7.2,10.2-13.5,17.7-24.3,24.4-2.1,1.3-12.8,7.8-13.8,7.7-2.1-.1-2.8-.7-3.4-2.8l4.7-15.6c-3.2,3.5-6.6,6.9-10.4,9.7-3.2,2.4-19.1,11.8-21.4,8.2.3-3.2,1.5-6.6,3.6-10.1,3.4-8.9,3.2-9.4-4.7-3.8-12.4,4.6-23,11.4-32,20.5-3.9,1.5-4.1.5-4.3-3.2-.4-6.8,3.8-18.2,6.9-24.4-6.9,4.8-13.1,10.6-18.7,16.9-1.6,4.8-6.6,8.6-7.8,1.7l3.4-18.7c-5.8-4.2-10.2-8.6-12-15.8-1.1,4.9-2.6,9.6-4.7,14.2-2.8,6.3-14.6,18.8-11.5,3.3-.3-6.2,0-12.4.7-18.5-8.3,4.1-17.4,8.2-26.7,7.3v-3.1c3.1-7.1,8.5-12.6,11-20-10.7,11-19.9,18.6-36.4,16.9-1,0-4.7-.4-4.6-1.9,24.5-11.5,36.1-39,38-65l11.6,19.9c12.9,17.3,29.8,28.5,50.6,34.4,51.5,14.5,97.1-4.6,134.8-39.3-18.5,3.5-32.8,16.5-49.5,24-57.7,26-117.9,8.6-143.4-50.7-7.5-17.5-12.4-30-21.1-47.4-1.2-.4-2.4-.9-3.2-1.9-6.2-8.6-9.8-26.6-10.8-37.3-.5-5.1-.2-16.3,4-18.8h0Z"/>
    <path class="st40" d="M1812.4,496.1c-.2-1.4-3.8-11.6-4.5-13-.2-.5-1.2-1.2-1.5-1l-1,4c-1.4.3-1.4-1.7-1.6-2.7-1.4-9.2,4.7-29.9,8.9-38.5,10.1-20.6,26.8-36.1,35.2-58.8,6.1-16.5,6.6-31.1,8-48,.1-1.3,0-5.8,1.5-6,.2,3.9,2.8,6,3.6,9.9,4.1,21.5-5.2,48.3-14.4,67.8-13.8,29.5-36.3,48.8-23.9,84.5,1.1,3,3.2,5.6,4.4,9.6,6.4,20.9.7,40-7.7,59.2,16.1-13.8,21.4-30.6,20-51.5-1.8-27.2-7.5-34.3,1.8-63.1.6-1.9,2.2-7,4.2-4.8-.5,12.3-2.2,26.7-.9,38.9,1.8,16.1,10.8,32.3,11.9,50.1,1.2,19.2-3.4,24.3-8.5,40.6-2,6.3-1.2,15.7.5,22l8.4-20c5.2-9.2,17.5-25.8,17.5-36.5v-14.5c1.9.3,1.6,2.1,2.1,3.4,7.6,20.3.9,38.2-2.1,58.6,1.6,1.8,6.2-7.7,6.7-8.8,9.5-19.4,10.9-40.2,10-61.4,0-.7-1.3-3.8.8-3.8,4.4.2,10.3,33.4,10.6,38.5.1,2-1.5,12.3,0,13.5,8-7.8,13.2-21.3,14-32.5,1.9-26.3-17.5-54.4,0-78.5-.2,8.7.4,19,3.3,27.2,3.6,9.9,12.8,16.9,18.5,25.5,11.9,18.3,10.1,40.1,1.2,59.3,14.1-11.4,22.4-27.5,20-46,2.6-.5,1.8.4,2.4,2,4.1,10.2,4.5,22.7,2.5,33.5-.4,2.3-4.3,3.8-2,5.5-11.3,13.8-31.8,20.2-36,39l-3-10.5c-1.1-7.9,1.9-16.4,2-24,0-1.6-.9-2.6-2-1.5-.6.6-5.3,14-5.7,15.8-3.4,14.5-1.1,27.9,8.7,39.2-9.9.2-21.8-3.6-26.2-13.3l-3.8-13.7c-8.2,15.5-1.2,30.9,0,47l-14.6-9.8c-5.8-2.5-12.1-4.4-18.4-5.1-1.2.9,16.7,10.6,18,11.5.5.3,3.8.8,2,2.5-.3.3-6.8-1.8-8.7-1.9-18.1-1.2-29.9,2.4-45.2-10.7-4.2-3.6-13.1-14.5-13.1-19.9v-16c0-.3,1.8-2.7,1-3.5-2.3-2.4-7.3,12.6-8.5,14l-6.5,23c-13.2-21.9-12.2-46.4.2-68.3,11.2-19.8,22.8-34,11.1-58.4l-1.2.8h0s0,0,0,0Z"/>
    <path class="st82" d="M1494.4,641.1c1.4,2.4.8,1.6,2.8,1.4,3.1-.3,7.3-1,10.3-1.8,6.1-1.7,11.2-5.2,17-7.5-3.1,7.4-1.7,14.8-2,22.5,0,2.4-2.8,6.2,1,5.5,1.5-4,5.2-6.5,7.1-10.5,2.8-5.7,3.9-12.5,5.5-18.5,2.7,3.8,3.4,9.1,6.1,13,1.5,2.2,8.4,7.2,8.5,7.8,1,4.2-4.5,19.4-3,21.3s3.3-3.7,4-4.5c7.2-8.2,15.8-15.6,25-21.5-1.5,5-4.6,9.1-6.3,14.2-2,6.2-2.6,12.5-3.7,18.8,4.5-3.4,8.4-8.3,13.1-11.4,8.3-5.5,20.2-8.7,27.9-15.2.2-.2,3.5-5.3,3-1-.8,7.4-2.6,14-6.9,20.1-1.2,3.6,18.8-8.2,19.9-9.1,3.3-2.5,7.6-7.2,10.6-10.4,1.6-1.7,2.3-6,3.1,0l-6.1,20c7.2-3.8,16.7-8.8,23-14,7.6-6.2,11.8-15.5,19-22,1.4,5.1-1.8,10-3.3,14.7l-7.2,11.3c14.8-3.8,30.8-13.6,35-29,1.4-.3,1.1,1.1,1.3,2.2,1.1,4.8,1.2,14.3.6,19.2-.2,1.7-2.1,5.4-1.9,5.6,1.8,1.5,2.4-1.9,3.4-3,10.7-11.1,17.2-14.7,24.3-29.8,1.1-2.4,4.3-13.8,5.8-14.2,1.6-.4,2,1.4,2.7,2.3,9.9,11.7,16.5,24.2,18.3,39.7,8.8-10.7,9.9-23.2,9.6-36.5-.1-4.3-1.7-8.2-1-13,.7-5.5,2.6,2.1,3.1,2.9,13.2,20.5,40.3,21.1,34.6,51.9-.5,2.6-4.6,6.3-.8,7.7-9.2,7.2-19.3,12.8-31,15,3.2-8.6,6.2-17.2,6-26.5,0-1.2.7-3.7-1-3.5-9.1,24.4-25.5,43.1-50,52l-1.8-1.2c1.9-8.1,3.2-14.7,3.8-19.8.5-1.3.6-2.7,1-4l-.9-2.2c2.1-4,3.8-8.2,4.8-12.7-8.5,10.5-17.1,21.6-24,32.9-11.1,8.1-22.2,14.3-36,17,5.2-11.3,12.8-22.2,13.5-35-8.6,14.3-21.8,24.5-37.5,30-5.3,1.8-4.6-2.2-3.3-6.1l6.7-13.7c-.8,1.3-1.9,1.3-3.4.8-3.4,3.7-6.8,7.7-10.5,11-12.3,11-28.9,17.3-44.5,22l13.5-33c-11.9,12.2-23.1,24.7-31,40-14.4-14.4-22.2-34.6-27.5-54-1.5-.2-1.2,1.9-1.5,3-2.2,8.6-2.4,18.5.5,27-25.9-8.3-35.7-30.7-30-57l-5.4,8.1c-4.4,8.6-5.6,17.3-4.6,26.9-15.7-11.8-16.5-29-9-46h0Z"/>
    <path class="st61" d="M1917.4,814.1c-2.3-1-4.3-3.1-5.7-6.4.9,5.1,2.6,31-3.2,32.1-1.4.3-2.6-.4-3.2-1.7l-8.5-19.7c-.5,29-1.9,57.6-4.4,85.8-.5,1.8-1.3,3.8-1.9,5.7-.5,1.5.9,2.9-2.1,2.3.2-10-.3-19.7-4.8-28.8-.7-1.3.7-2.8-2.2-2.2.8,26-3.3,52.9,5.5,78,2.6,7.3,9.6,12.1-.5,16-1.7-5.6-5.8-11.5-10-15.5-1.5-1.4-2.2-2.8-2,.5l-8-15c.3,8.2-.1,16.3-1.1,24.4l-4.9,16.6c.8-34.8-7.2-68.8-18-101.5l2.5.5,14.5,15c-.7-8.2-2.1-16.3-3-24.5s-.6-16.6-2.3-24.7c-3.1-15.2-11.1-28.6-15.7-43.3.8-1.5,1.7,0,2.5.5,7,5.3,11.5,8.8,20,12,2.7,1,6.7,2.7,9.5,2.5-2-2.8-3.8-5.7-5.2-8.8-12.9-28.8-16.6-57.5-32.8-85.7-1-1.7-1.8-3.5-3-5,1.4-1.6,3.4-3.1,5.9-4.5,16.6-7.5,28.8-16.6,42.1-28.5.9-.8,5.3-4.7,5.6-4.8.8-.3,1.5-.5,2.3-.2,19.9,36.5,33.7,87.3,32,129h0Z"/>
    <path class="st31" d="M1667.4,924.1c2.2-.9,3.1-1.4,5-3,2.1,2.8-6.4,9.6-8.7,10.8-24,13.2-53.8,6.2-79.8,3.2-9.2-1.1-18.4-1.3-27.5-2.5,2.7,3.3,5.8,6.2,8.9,9.1,15.9,14.5,35.5,26.7,56.3,33.7,18.6,6.3,71.8,16.9,87.8,4.2,6.2-4.9,2.4-7.4,2.2-13-.6-14.2-1.9-29,.7-43.2.3-1.9-.8-3.9,2.1-3.3,2.9,18.8,9.3,39.1,17.1,56.4,1.9,4.2,5.2,6.7,6.4,11.6,1.6,6.5,2.2,22.2,2.5,29.5.2,5.8.9,19,0,24-.2,1.2-.3,1.9-1.6,2.4-.6.2-10.5,1.1-11.9,1.1-92.2.6-172.8-64.8-204.5-148,.4-2.8,3.7-1.8,2.9-.5-.5.8-.9,0,1.1-.5,3.8,15,13.2,19.3,27,23.5,27,8.1,88.3,14.8,114,4.5h0s0,0,0,0Z"/>
    <path class="st31" d="M1837.4,703.1c-.8-5-3.4-1.7-3.9-2.1-.2,0-.6-2.2-1.5-3-4.4-4-7.8-2.1-12.6-3.4-2.9-.8-7.4-2.4-10.2-3.6-.8-.4-.8-2-1.3-2-3.3,0-22.3,11-27.9,13-6.5,2.4-12.7,2.8-18.5,4.6s-13.1,9.7-19.2,12.8c-14.1,7.3-24.9,6.4-39.1,9.9-4.7,1.2-11.5,5.8-16.5,7.5-15.6,5-22.7,3.9-37.9,2.6-13.7-1.2-24.9,4.7-37.5,4.3-1.6,0-3.2-2.2-2.8,1.3-9.7-.8-19.3-2.3-29-2,1.2-10.5,2.3-6.8,9.4-8.1,8.3-1.5,16.6-4.5,24.3-7.7,1.8-.8,8.3-4.8,8.8-4.8,1.2,0,4.1,2.6,7,2.7,7.9.3,20-4.2,27-8.1,1.2,1.7-1.6,5.1-.4,6.9.6.8,8.7,2.2,10.4,2.2,4.1,0,12.4-2.3,16.5-3.6s18.9-9.6,20.5-9.5c.5,0,1.6,3.7,8,4.1,11.4.7,22.8-5,32.1-11,2.8-1.8,14.2-11.5,15.2-11.8,2.7-.8,6.9,0,10.3-.7,16.8-3.1,33.5-14.8,45.4-26.5l.5,7c.9.7,10.8-4.8,12.7-5.8,5.5-3.2,11.8-7.3,15.8-12.2,2.3-2.7,7.4-13.8,8.2-14,2.6-.7,7.8.2,10.2,1.6.9.5,14.6,13,15.2,13.9.7,1.1,1.1,1.3.8,2.8-.2,1.2-9.7,12.9-11.3,14.8-8.4,9.6-19.1,19.3-28.5,28h0,0Z"/>
    <path class="st59" d="M1483.4,695.1l2.6.7c3.7,8.2,10.1,18.3,19.4,20,20.2,1.4,39.8,11.2,55,24v2.2c-18.9.2-26.5.2-30.6,21-5.9,29.5-10.6,105-3.4,133,.5,3.6-1.3.8-4,1-8-21-12.9-39.1-15.9-61.6-2.5-19.2-2.2-40.1-6-58.9-5.8-28.7-27-50.3-17.2-81.4Z"/>
    <path class="st44" d="M1548.1,750.3c6.3-1.1,19.8.4,26.8.7,23.6,1.2,49.5,2.7,72.9,5,15.4,1.6,27.8,0,28.2,18.5.6,26.7-2.6,56.1-3.6,83-.4,10.6.4,21.4,0,32-.2,4.2-.4,14-1.5,17.5-3.2,11-13.8,13.3-24,14-24.6,1.7-80.2-.6-101.6-12.5-12.2-6.8-13.2-22.2-14-35-1.8-28,.7-65.9,4-94,1.2-9.7,1.1-27.3,12.7-29.3h0Z"/>
    <path class="st35" d="M1942.4,758.1c17.5,38.2,9.7,98.5-5,137h-1.6c-5.5,6.2-10.3,12.9-15,19.7-3.5,2.9-7.3,1.2-6.3-3.4,7.2-23.3,9.7-50.1,8.9-74.4,4.2-25,3.1-46.1-1-71,.5-5.1,2.4-7.7,5.8-8l4.1-3.6c1.6-9,6.5-6.5,7.1.9l3,2.7h0Z"/>
    <path class="st21" d="M1923.4,837.1l1,2.5,1-3.5c.8,5.2.8,10.6.3,15.8-1.2,15-3.3,36.4-6.2,50.7-.4,1.9-4.2,10.5-3.1,11.5.7.6,2.6,0,3.4-1.1,2.9-3.7,5.4-8.6,8.6-12.4,2.7-3.2,6.3-5.8,8.5-9.5l.5,4c-9.3,24.2-22.4,46.7-37,68-2.3,1.6-8.2-18.2-8.5-20-.5-2.2-2.5-15.3-2.3-16.3.1-.6,6.5-7.8,7.9-10.2,6-10.6,6.3-21.4,10.2-31.8,6.6-17.4,12.5-28.3,15.7-47.8h0Z"/>
    <path class="st28" d="M1441.4,483.1c2.3-2-.8-4.8-.7-7.3.1-3.9.5-7.7.7-12.1.2-6.5-1-14.6,4-19.5-1,22.4,10.7,43.4,27,58-1.4-7-4.3-13.7-5.7-20.8-.7-3.7-3.3-24-1.3-26.2.1-.1.7,0,1,0l1,3,1-7c1.6,3.4,2.8,2.5,3.8-2.7,3.7-5,8.3,3.9,3.2,5.7-.9,3.4-1.9,9.1-2,12.5-.7,17,4.5,30.6,12,45.5-2,1-.7,3.3-.3,4.8,3,12,8.4,24.7,10,37,.2,1.5,1.3,6.7-.7,7.2-1-3.8-3.4-7.6-5.6-10.9-15.8-24.3-36.2-39.5-47.4-67.1h0s0,0,0,0Z"/>
    <path class="st36" d="M1479.4,759.1c-1.2,19.7,5.9,40.3,7.5,59.7,1,11.9.2,23.9,1.5,35.8,1.2,11.2,5.2,23.2,6,34,.2,3-2-.4-2,1-.2,5.1,5,10.9,2,15.5-.7-3.5-1.5-5.5-2.2-8.3-3.7-17-6.6-34.3-8.8-51.7-1.4-.2-1.6,2.8-1.7,3.8-.6,3.7-.2,7.6-1.3,11.2-.9-1-.9-.7,0,1,.2,2.6-.1,5.3,0,8-1.8-1-2.7-5.2-3.2-7.2-5.9-20.2-4.9-42,2.2-61.8-5.1,2.3-8.3,7.3-12.5,11l-5.5,9v-18.5c0-3.2,7.2-23,9-27,2.5-5.4,6.2-10.3,9-15.5h0,0Z"/>
    <path class="st31" d="M1483.4,695.1c1.1-3.5,2.8-6.8,4.5-10,3.8,6.2,11.1,10.4,17.5,13.5,3,1.4,7.4,1.7,9.9,3.1,3.5,1.8,8.6,7.8,13.4,10.6,7.1,4.1,17.8,5.5,22.6,8.4,3.1,1.8,11.6,19.5,18,20.5.3,1.7-1.4.9-2.5,1-2.2.1-4.3,0-6.5,0-2.1-.8-5.2-5-6.3-5.7-3.4-2.1-27.2-14.7-29.4-15.3-7.1-1.9-19.2-2.3-25.5-5.1-.7-.3-8.8-8.4-9.6-9.5-2.5-3.3-4.2-7.7-6.2-11.4h0s0,0,0,0Z"/>
    <path class="st41" d="M1773.4,475.1c-.2-2.8,2.8-2.7,3.8-4.7,1.8-3.5,1.4-10.9,3.2-14.9l5.1-8.4c-1.5,13.9-1.6,28.1,0,42l1-4c.6,7.5,3.4,16,4,23.5,1.4,19.7-8.4,43.6-26,53.5,4.6-7,6.3-17,10-24.5.2-3-1.1-.7-1.8.2-2,2.4-2.8,3.3-5.2,5.3-4.6,0-3.1-4.9-.6-7.5,4.6-3.8,7.7-6.5,9.4-12.4.8-3.1,1.8-10.2,1.4-12.8-2.2-5.1-3.2-10.3-3.1-15.4-.4-6.7.9-13.5-1-20h0s0,0,0,0Z"/>
    <path class="st3" d="M1892.4,904.1c-2.5-6-.6-13.6-.1-19.6,1.2-17.2,1.6-34.5,1.7-51.9,0-7.5.7-15.1,1.5-22.5l12,28c1.4-.2,1.7-1.4,1.9-2.5,1-5.3,1.7-15,1.6-20.4,0-1.5-1.3-2.3-1.4-3.6-.2-3.1,1.3-7-1.1-10.5,4.7-.6,1.9.9,2.7,2,2.6,3.7,4.8,6.7,6.3,11-.4,11-2.5,18.4-4.9,28.6-1.8,7.4-3.5,14.9-5.1,22.4-2.5,3.1-2-7.3-2.2-8.3-.8-3.9-2.4-9.5-3.6-13.4-.5-1.6.8-2.8-2.1-2.3-.4,20.2-1.4,43.5-7,63h0Z"/>
    <path class="st75" d="M1947.4,894.1c1.2,1.6,1.1,3.3.8,5.2-1.5,9-4.7,17.7-6.5,26.5-.3,1.5.3,3.5-.3,5.2,7.4-4.3,12.4-11.4,17.5-18-.3,9.2-6.1,18-12.1,24.9-.7.7-2,1-2.2,1.3-.2.2.8.8.8.8-.3,1.1-16.9,8.8-20.3,11.2-6.7,4.6-13.1,10.6-18.2,16.8l-.5-1.5c11.1-13.1,20.2-27.8,27.8-43.2,4.2-8.5,10-20.5,13.1-29.4h0Z"/>
    <path class="st37" d="M1827.4,723.1c17.3-15.7,36.2-30,50-49,1.3-.3,1.3-.3,2.1.6,1.9,2.1,4.4,7.6,5.9,10.4-.9,1.6-.7,2.1-2.4,3.2-5.4,3.5-8.6,8.4-14.1,12.8-5.1,4-34.8,21.8-39.5,22-.7,0-1.3,0-2,0h0Z"/>
    <path class="st63" d="M1942.4,758.1c-.4,1.6-4.3-1.8-4.5-2-.4-.7,1-4.9-1-6-4,1.7-1.2,5.8-1.5,6-.1.1-2-.2-2.9.6-2.1,1.6-2.3,4.4-7.1,3.4l1,3-4,3c-3.2-19.5-8.7-38.6-16-57,13.4,15.1,27.5,30.4,36,49h0Z"/>
    <path class="st29" d="M1586.4,171.1c2.4,1.9,5.6,2.6,8,4.5,16,12.1,22.5,31.3,16.3,50.6-.7,2.3,0,2.5-2.3.9-.5-15.1-6.9-33-17.5-44-3.6-3.8-9.7-6.2-12.5-11,2.7-.6,5.5-.6,8-1h0Z"/>
    <path class="st11" d="M1809.4,400.1c-.5-4.5.3-11.9,1.2-16.3s3.3-7.2,4.4-10.5c6.4-19.1,9-38.5,8.4-58.7-.1-4.2-2.3-8,0-12.5,4.6,33.5,7.2,62-9.8,92.7-1.2,2.1-3.5,4.2-4.2,5.3h0Z"/>
    <path class="st79" d="M1704.4,700.1c-1.5-2.2.9-4.7,2-6.5,7.2-11.6,16.1-22.2,24.5-32.6.9-1.1,0-4.5,2.5-2.4-3,6.6-4.6,17.9-9,23.5-4.8,6.2-13.6,13.3-20,18h0Z"/>
    <path class="st53" d="M1383.4,524.1c3.9-3.3,4.8-7.4,8.5-11,1.2-1.1,1.8-1,2.3.5.3.9-.7,9.2-.9,10.9-.7,5-2.4,16.6-3.9,20.9-.4,1-2.5,1.5-2.9,2.8-2-7.5-3.1-16.3-3-24h0Z"/>
    <path class="st26" d="M1876.4,1018.1c-2.2,1.5-2.4,1.4-1.8-1.3,3.7-15.5,2-16.3.8-31.2-.5-5.6.6-11.3-1-17l1.1,1.4c.5,0,.7-.9.9-.9.5,0,.8,0,1,.5,3.6,16.2,5.2,32.7-1,48.5h0Z"/>
    <path class="st54" d="M1797.4,497.1l2.5-5c4.9.9,2.2,4.4,2.7,7.2,1,6.8,5.5,18.2-1.2,22.8.2-2.1-1.6-4.4-2-6-1.5-5.9-1.2-12.6-2-19h0Z"/>
    <path class="st52" d="M1644.4,693.1c2.2-2.3,4-5,6.5-7,.6,7.4-6.5,14.7-8.3,21.7-.4,1.5-1.4,5,1.8,4.3-3.9,1.4-7.7,3.5-12,3l7.2-10.3,4.8-11.7h0Z"/>
    <path class="st58" d="M1477.4,755.1c.2,1.5-6.5,7.3-8.3,8.2-3.3,1.7-7,2.1-10.7,1.8l7.4-7.1c2.6-3.4,4.6-7.2,6.6-10.9,1.6,1.8,4.6,5.8,5,8Z"/>
    <path class="st45" d="M1721.4,707.1c-.8.3-10.1,5.1-9,1.5.8-2.7,3.9-6.2,5.2-8.8,2-4.4,4.1-9.2,5.8-13.7l1.7,1.2-3.7,19.8h0Z"/>
    <path class="st13" d="M1888.4,995.1c.4-2.1-.6-11,.1-11.9.3-.4,7.6-1.9,8.9-4.1l-6.5,13-2.5,3Z"/>
    <path class="st20" d="M1480.4,860.1c0,.3,0,.7,0,1-2.5.5-2.2-1.1-2.7-2.8-1.1-3.9-2.2-10.7-2.4-14.7,0-1.1-.6-3.8,1-3.5l4,20h0Z"/>
    <path class="st43" d="M1723.1,326.3c30.9-4.2,55.2,26,52.2,55.2-2.8,27.1-37.6,34.9-59.8,29.8-22.3-5.1-32.6-15.7-31.6-39.5.9-22.9,15.7-42.4,39.2-45.6h0Z"/>
    <path class="st56" d="M1700.4,293c-1.9-4.5,2.5-12.4,5.5-15.9,9.9-11.6,36.5-11.2,49.2-4.3,7.4,4,23.8,19.9,27.7,27.3,1.1,2.2,5.4,13.4,1.6,12.5-2.1-.5-12.2-12.8-15.5-15.5-14.7-12.5-28.3-17.6-47.4-11.5-3.4,1.1-19.2,9.2-21,7.4h0Z"/>
    <path class="st28" d="M1871.4,505.1c-1.3,1.4-5.2-4.9-5.7-5.8-10.4-17.3-13.5-45.1-8-64.4,5.5-19.1,21.2-30,28.2-47.8l3.5-6c-.5,8-2.6,19.2-5.8,26.7-.9,2.1-3.1,3.9-3.9,6.1-11.5,29.7-19,60-8.3,91.2h0Z"/>
    <path class="st28" d="M1896.3,484.1c-1.9-1.6-3.4-7.2-3.9-9.6-5.6-27.2,12.9-47.8,14.9-73.9.5-6.8.4-16.2,0-23-.5-8.5-2.8-17.1-3.5-25.5,1.5,1.2,2.7,2.6,3.7,4.3,8.2,12.9,9.9,32.2,8.8,47.2-1.3,18.3-13.9,32.2-17.6,50.4-2,10-1,20.1-2.4,30.1h0Z"/>
    <path class="st28" d="M1864.4,389.1c-.2-3.8.7-7.5,1.3-11.2,5.2-30.1,12.1-51.4-3.9-80.7-2.4-4.5-7.5-9-8.4-14.1,25.7,21.6,35.1,58.5,22.3,89.8-2.3,5.7-6.1,12.8-11.3,16.2h0Z"/>
    <path class="st14" d="M1953.4,484.1c-.9,1-3.4-1.8-4-2.5-7.3-8.2-14-21.2-14.9-32.1-1.2-14.8,6.1-27.8,6.8-41.9.3-6.2-1.8-10.5-2-16.5,2.8,2.1,4.7,7.4,5.8,10.7,6.7,21.6-2.8,42,2.5,64.5.7,2.8,6.3,17.1,5.7,17.8h0Z"/>
    <path class="st40" d="M1966.3,423.1c-2.3-1.8-3.2-7.8-3.7-10.8-2.4-14-3.1-28.9-8.8-42.2-.6-1.4-4.4-6.1-3.5-7,1.9-.4,2.4,1.1,3.5,2,14.6,12,16.8,40.8,12.5,58h0Z"/>
    <path class="st9" d="M1746.4,321.1c-10.3-1.4-19.9-3-30,.5-11,3.8-18.8,13-28,19.5,5.2-23,39.7-34.1,58-20h0Z"/>
    <path class="st66" d="M1676.4,229.1c-.1,0-.5-.9-1-1-.6,1.7-.2,4.7-3,4-.1-1.4-.1-2.6.5-4,1.4-2.9,12.5-18.1,15.1-21,7.8-8.6,16.9-10.7,27.3-14.6,2.9-1.1,2.2-.2,1.1,1.6-9.1,4.4-29.9,22.8-36,30.4-.9,1.1-2.9,4.5-4,4.6h0Z"/>
    <path class="st18" d="M1567.4,456.1c-15.7-6-35.6-28.4-32.8-46.3,6.9-44,105.7-39.1,106.7,9.9.2,9.4-4.5,16.4-11.9,21.4,0,.7,0,1.3-.3,1.5-12.7,9.6-26.6,19-43,19.2.7,15.3.8,18,14.2,26.5,28.8,18.2,68,28.5,99.8,10.8,14.8-8.3,26.9-21.2,32.9-36.8l-1.6-2.2c-2.5-.2-6.9.8-6-3.5.1-.6,5.4-3.3,6.6-3.5,9.5-1.6,23.8,4.6,26.7,14.2,1.2,3.9.4,6.2.8,9.7-.2,5.8-2,7.8-5.4,6.2l-6.1-11.3c-.7,4.9-2.6,7.9-5.5,9-12,29.9-59.9,78.7-88.3,94.2-30.8,16.8-73.2,21.5-104.3,3-20.1-11.9-22.1-22.7-26.3-44.2-.9-4.8-1.1-10.1-2.3-15.2-.5-2.2-4.2-14.8-4.9-15.6-.6-.6-4.4-.9-5.9-1.5-20.8-8.6-32.2-25.4-34.8-47.7-.2-1.6,1-5.7-1-6-1.4,3.5-2.4,7.3-3.8,10.8-.6,1.5.6,2.7-2.2,2.2.1-3.3-.2-6.7,0-10,.2-3.8.5-6.9,2.1-10.4,2.3-5,10.6-14.6,16.9-12.6.3,0,4,3,3,4-.3.3-5.8.2-6.8,3.7-.7,2.4-.4,10.8-.2,13.8.7,8.4,3.8,18.2,8,25.5,13.7,15,29.1,21.1,49.6,18.6,7.9-1,32.3-8.2,36.1-15.4.4-.8-1-17.2-1.6-17.9-4.5-.4-7.2-1.8-8.1-4.3h0s0,0,0,0Z"/>
    <path class="st43" d="M1505.4,411.1l-9,3.5,30-28.5c-9.4,4.1-23.6.2-31.5-6-24.2-19.1-6.8-61.4,18.5-71,0-2.1-10.2,1.9-7-2,.9-1.1,11.7-4.5,13.8-4.8,6.8-.9,14.8-.1,21.2,2.3,20.2,7.5,23.3,40.8,14.8,57.7-.7,1.5-5.7,6.8-4.7,7.8,2.8-2.1,6-2.1,9-3,27.4-8,55.8-8.4,80.5,8l5.5,6c-28.5-12.6-65.5-17.3-94.7-4.2-17.8,8-29,24.5-46.3,34.2h0s0,0,0,0Z"/>
    <path class="st0" d="M1629.4,441.1c.8-.3,3.5-1.4,4-1-1.9,3.9-41.5,29.9-40,32,0,0,1.4-.2,1.7.3.8,1.6.2,2.9,1.8,4.8,2.2,2.5,15.1,10.4,18.7,12.3,22.2,11.9,57.6,19.2,81.1,8.3,15.3-7.1,30.4-21,34.8-37.7,1.6.2,4.4-1,3.9,1.4-1.4,6.4-11.1,20.3-15.9,25.1-25.7,26.5-60.9,28.9-94.3,16.2-9.4-3.6-36.2-16.1-39.5-25.5-1.9-5.4.4-11.4-2.2-16.7.2-1.6,9-1.4,11.2-1.8,17.6-3.4,21.6-12.3,34.8-17.7h0Z"/>
    <path class="st32" d="M1567.4,456.1c1.8.7,10.6,2.7,10.9,3.1-.9,3.8,1.4,17.7.6,19.9-.5,1.2-9,7.1-10.8,8.1-24.1,13-61.5,14.3-76.7-12.2,3-1.7,5.7,3.8,8.1,5.4,15.4,10.9,43.4,11.1,60.3,3.4,2.3-1.1,7.9-3.9,8.9-6.1,1.1-2.5,2.1-13,1-15.5s-6.5-4.6-2.2-6.2h0Z"/>
    <path class="st47" d="M1774.4,495.1c.5,7.5,5.8,12,5.9,20.6,0,.5-1.8.3-1.8.8.2,6.2-.2,9.8-4.4,15.2-2.2,2.8-10.3,6.6-6.7,11.3-7.2,6.3-8.9,5.6-17,9,4.4-8,10.5-14.8,14.4-23.1,2.8-6.1,5-13.5,7.6-19.9,1.3-2.7,1.7-5.4,1-8,.2-1.9-.8-4.9,1-6h0Z"/>
    <path class="st77" d="M1626.9,281.6c.5-.5.8-.5,1.1.7,1.2,5.7-6.4,59.9-9,56.5-1.5-2,5.1-53.9,7.9-57.2h0Z"/>
    <path class="st60" d="M1759.4,477.1c1.2,11.7,2.3,20.5-6.5,30,.9-6.6.9-12.2-3.1-17.9-2.2-3.2-6-4.3-7.4-8.1,1.8-4.6,4-8.9,4-14,4.4,4.5,6.9,10.4,9.5,16l3.5-6h0,0Z"/>
    <path class="st57" d="M1658.9,439.4c5.4,0,8.1,15.8-1.8,14.5-7.3-1-3.1-14.5,1.8-14.5Z"/>
    <path class="st8" d="M1520.2,423.3c2.5,3.4-.6,15.8-7.8,12.3-7.6-3.7,3.4-18.4,7.8-12.3Z"/>
    <path class="st72" d="M1664.6,425.8c-3.2-2.9-3.7-14.4,2.2-13.8,8.8.9,5.3,20.6-2.2,13.8Z"/>
    <path class="st4" d="M1693.1,451.8c-5.6,5.7-12.5-7.2-7.1-10.8,5.1-3.4,11.2,6.6,7.1,10.8Z"/>
    <path class="st64" d="M1506.1,451.2c7-1.9,8.6,12.2-1.2,10.9-6.2-.9-2.6-9.9,1.2-10.9Z"/>
    <path class="st55" d="M1680.9,465.4c5.2,0,8,10.2,2.8,11.5s-9.8-11.6-2.8-11.5Z"/>
    <path class="st62" d="M1655.3,475c-.4.3-5.1.4-5.8,0-1.5-.9-3.8-11.9,3-10.3,4.7,1.1,4.6,8.9,2.8,10.4Z"/>
    <path class="st1" d="M1529.2,447.2c4.5,2.8-4.2,16.2-6.7,8.1-1.4-4.6,2.3-10.9,6.7-8.1Z"/>
    <path class="st41" d="M1772.4,509.1c.1-2.7.7-5.3,1-8l.8.7c1.5,3.5-1,5.3-1.8,7.3Z"/>
    <path class="st6" d="M1495.4,281.1c2.8-3.3,4-7.5,6.6-10.9,3.9-5.2,14.9-16.5,20.5-19.5,17.1-9.1,39.4-4,44.8,16,1.1,4.1,2.5,10-3.3,9.4-3.6-.4-16.3-10.1-21.9-12.2-11.6-4.2-23.6-2.3-33.6,4.8-5.1,3.7-7.2,10.3-13.1,12.4h0Z"/>
    <path class="st84" d="M1564.3,324.1l-7-12.5c-2.2-2.5-4.8-6.9-7-9-5.3-5.1-12.5-6.9-18-11.5,18.3.9,34.5,13.2,32,33h0Z"/>
    <path class="st76" d="M1393.4,475.1l-3.7-7.8c-5.5-22.2-2.4-40.1,11.3-58.1,3.1-4.1,7.4-10.2,12.4-11.6l-10.8,19.2c-1.5,10.5-9.3,26.7-9.3,36.7v21.5h0Z"/>
    <path class="st83" d="M1379.3,487.1c3.2,3-4.9,29.1-6.7,33.8-.5,1.3-.6,2.9-2.3,3.2.3-2-.6-4.2-.5-6.2.5-5.7,3.7-25.3,6.6-29.2.9-1.1,1.1-2,2.8-1.6Z"/>
    <path class="st70" d="M1432,552.7c-.6.9-3.4,1.3-2.7,4.3-.9,0-1.5-.8-1.7-1.6-.9-3.4,2.5-14.2,2.7-18.8s.2-9.8-1-14.5c1.5.2,1.9,1.8,2.5,3,5.3,11,7.2,16.9.2,27.7h0Z"/>
    <path class="st49" d="M1544.7,898.7c-6-6.5-6.8-31.9-6.9-41.2-.5-23.8,1.1-49.2,3.6-72.9,1.2-11.2-.3-25.5,13.7-26.1,12.3-.6,24.8,1.9,36.8,2.6,19.2,1.1,50.1.3,67.7,5.3,7.1,2,7.6,7.1,7.7,14.1.3,23.4-2.9,47.7-3.7,71.2-.5,15,.8,31-.2,45.9-.8,11.5-3.7,14.4-15.5,15.4-23.6,2.1-68.6-2.4-91.5-8.5-4-1.1-8.7-2.7-11.6-5.9h0Z"/>
    <path class="st74" d="M1726.4,339.1l-10.7,3.8c-17.8,8.7-23.3,44.5-6.3,56.7-11.4-.5-16.7-11-17.7-21.5-1.9-21.1,13.2-38.9,34.7-39Z"/>
    <path class="st38" d="M1734.1,347.2c16.2-2.6,8.5,26.7-4.7,15.2-5.9-5.1-2.5-14.1,4.7-15.2Z"/>
    <path class="st15" d="M1751.4,399.1l7.2-10.3,5.8-20.7c2.5,12.4,1.3,27.2-13,31Z"/>
    <path class="st33" d="M1543.4,411.1c2.4-30.8,71-29.7,84.4-2.9,2.5,5.1,5.9,14.6,1.7,19.4-2.8,3.2-15.2,4.1-15.1-1,0-1.8,2.6-2.5,2.8-5.6.7-15.9-15.7-11.3-18.3-3-3.9,12.8,4.2,19.1,14.5,23.5-2.7,2.8-6.1,4.8-9.7,6.3-3.3,1.4-17.7,5.9-19.1,1.6-.5-8.8.5-17.5.9-26.3l2.2-.2c1.4,3.3,7.4-2.1,1.2-1.4-3.7-1-.7-17,.3-18.3,4.6-.5,9.4-.8,14.2-1l.5-1.3c4.3.3,8.8.7,13.5,1.3-12-9.5-33.6-9.3-48.3-7.4-25.7,6-5.5,6.8,5.8,4.5l1.4,1.9,4.1.9c.3,4,0,8.2-1.1,12.1,0,.3,0,.7,0,1-3.2,7.6-9.5,4.3-11-2.6l-4-3.4c-4.1-1.5-11.1-3.4-14.6,0-1.1,1.1-1.3,2.9-1.4,3-.6,4.6-4.9,3.7-5-1h0Z"/>
    <path class="st2" d="M1552.4,530.1l1.4-2.3c10.9.4,21.8.8,32.7,1.5.6,1.1.6,2.4,0,3.8l.5,9c2.7-2.8,4.7-6.6,6.5-10,.9-.8,1.8-1.7,3.1-1.9,8.2-.9,20.9,3.4,28.6,6.4,3-1.4,5.1-1.2,6.4.5-7.5,10.8-3.2,13.9-18.7,19.8-9.4,3.5-27.7,2.8-37.8,1.3-7.4-1.1-11.9-9.8-20.5-7l-2-21h0Z"/>
    <path class="st71" d="M1621.3,560.1c.7.5.4,8.2,3,6,.5-.4,4.8-9.5,5.5-11,2.2-4.7,5.7-23.6,13-14,2.7,3.6,3.5,18.5,1.5,22.2-1.6,3-18.5,10.6-22.4,11.8-20.7,6.5-60.1,5.9-75.6-11.5-9.2-10.3-12.6-23.5-2.5-34.5,3.6-.1,4.2,29.8,9,29.8.3,0,2.3-1.8,3.7-2.2,4.8-1.3,12.1,7,17.5,8.1,9,1.8,26.5,1.9,35.3-.2,4.2-1,7.8-3.4,11.9-4.5h0Z"/>
    <path class="st5" d="M1586.4,533.1c.6-3.2-1.6-1.7-3.5-2-4.9-.6-8.4-.3-12.9-.5-5.9-.3-11.5-1.9-17.6-.6-1.6-1.8-1.4-4.5-3.6-5.9s-6.2-.9-6.4-1.1c-.7-.6.4-17.3,1.1-17.9,5.1-.4,10.3-1.8,15.1-3.4,11.4-3.8,13.5-7.1,27.3-5.7,7,.7,12.7,4.9,18.5,8.5-8.3,7.9-13.9,17.9-18,28.5h0,0Z"/>
    <path class="st51" d="M1593.4,532.1c2.3-4.2,3.9-8.5,6.6-12.9,2.5-4,6.2-7.2,7.5-12,1.4-.9,20.5,7.1,24.1,8.2,14.7,4.1,30.8,6.5,45.8,3.7,2.2,3-8,12.7-10,15-2.1,1.8-2.5,2.1-4.7.4-3.6,3.1-7.2,6.2-10.8,9.1-1.8-2.8-3.3-5.3-4.6-7.5-7.2-5.2-9.6-8.1-16,1l-6.5,1.6c-9.8-4.6-20.6-6.2-31.5-6.6h0Z"/>
    <path class="st33" d="M1564.4,409.1c7.6,2.8,5,5.9,6.6,7.1,2.2,1.7,6.5,1,8.4-1.1-.3,7.1-1.5,14.4-2,21.5-.2,2.6,1.1,12.6-1.6,13.4-2.4.7-20.7-7.9-18.4-14,12.5-3.1,16.9-17.6,7-27h0Z"/>
    <path class="st33" d="M1603.4,402.1c-3.8,1.8-8.8,2-13,2,1,5.3-3.6,9-1.8,14.4.8,2.4,3,.5,4.4,1.5,4.6,3.4-4.4,4.7-3.5,9.1l-4-6c.3-7.3.7-14.7,1-22-1,.2-3.5-.3-3.9,0-.6.5-.9,11.3-3.1,12.9.1-3.3,0-7.1.1-10.5l-3.1-2.5,2.1-2.2c7.7-.6,15.3,0,23,.9l2,2.2h0Z"/>
    <path class="st50" d="M1647.4,536.1c0,0,.7-1.2,1.4-.1,1.4,1.9,1.1,4.6,3.1,6.1,2.2-2.7,8.1-8.8,11.1-9.9,1.3-.5,1.7,2.7,4.4,2-5,5.8-10.4,11.3-15.5,17l-4.5-15h0Z"/>
    <path class="st33" d="M1543.4,411.1c.4,2.4,3.8,2.1,5,1-1.3,6.7,3.2,2.7,4.8,4.2,1.5,1.3,2.7,8.8-1.1,8.6-7-.2-9.2-8-8.7-13.8h0Z"/>
    <path class="st42" d="M1507.4,328.1c-12.5,12-11.7,35.5-.6,48,1.2,1.4,3.4,1.4,3.6,2.9-8.8.4-17-10.5-18-18.5-1.3-10.7,3.7-28.7,15-32.5h0Z"/>
    <path class="st39" d="M1539,324.4c10.8-.6,11.2,18.4.3,18.4-11.7,0-11.1-17.8-.3-18.4Z"/>
    <path class="st30" d="M1550,762.2c2.5-.9,14.3-.2,17.9-.2,22.5.6,49.3,2.8,71.9,5,4.6.4,20.4,1.4,22.4,4.6,1.8,2.9,1.2,12,1.1,16-.4,18.2-2.5,36.7-3.1,54.9-.7,20.7.9,41.3-1.2,61.8-.7,2.8-2.6,4.2-5.3,4.7-21.9,3.4-81.3-1.7-101.7-9.2-8.7-3.2-8.9-13.4-9.8-21.2-3.1-27.5-1-81.6,4.1-108.9.4-2.1,1.6-6.8,3.6-7.4h0Z"/>
    <path class="st23" d="M1603.4,402.1c-10.6-1.3-16.4-1.9-27-1-3.1.3-22.8,3.1-23-.5,1.1-1.7,1.8-3.2,3.6-4.4,10-6.4,43.2-5.1,54.2-.4,1.9.8,11.5,5.7,8.2,7.8-2.6,1.6-12.4-1.1-16-1.5h0Z"/>
    <path class="st81" d="M1577.4,883.1c0,2.3,0,13.5-1.2,14.8-.9,1-7.8.5-9.3.2-5.1-1.1-1.6-10.6-1.5-14.4.3-10.3-.9-22,0-32,0-1.1.5-4.2,1.7-4.5,11.6,1.4,31.6-1.3,34.9,14,3.6,16.9-8.6,26.8-24.6,22.1h0Z"/>
    <path class="st81" d="M1619.5,886.2c-1.4,5.2-1.3,10.5-1.2,15.8-2.7-.5-10.9,1.4-11.9-1.6l1.3-47.4c.3-.7.5-1.5,1-2,1.7-1.7,18.2-1.2,21.6-.5,13.5,2.8,18.6,20.7,9.3,30.5-5.7,6-13.1,3.7-20.2,5.3h0Z"/>
    <path class="st48" d="M1594.1,808.3c5-1,10.2.5,14.6,2.9,7.7,4.3,23.7,24.8,8.7,28.4-11.4,2.7-12.9-4.7-18.5-4.5-4.2.2-9.1,4.4-15.1,4-4.6-.3-9.2-4.8-9-9.6s14.1-20.2,19.2-21.2h0Z"/>
    <path class="st48" d="M1616.9,773.5c2.2.2,6.4,4.4,7,6.5,2.8,9.1-4.6,27.1-15.8,23.8-7.9-2.3-6.4-31.7,8.8-30.3Z"/>
    <path class="st16" d="M1587.1,773.2c15.5-2.7,14,33.9.5,28.1-9.9-4.3-11.6-26.1-.5-28.1Z"/>
    <path class="st46" d="M1566.7,813.7c-9.6-9.1.9-34.4,11.7-19.2,8.5,12-1.6,28.7-11.7,19.2h0Z"/>
    <path class="st16" d="M1630.1,794.2c13.8-2.3,11.3,26.7-3.2,24.8-12.5-1.6-7.2-23.1,3.2-24.8Z"/>
    <path class="st19" d="M1578.5,860.2c12.8-2.9,16.2,11.7,1.9,12.5-4.6.2-1.8-8.8-1.9-12.5Z"/>
    <path class="st17" d="M1620.4,861.1c3.2,1.7,7.7.2,9.9,3.6,3.3,5.1-.9,9.5-6.4,9.5-8.3,0-2.6-7.8-3.5-13.1h0Z"/>
  </g>
</svg>